# Blender v2.76 (sub 0) OBJ File: ''
# www.blender.org
mtllib c.mtl
o Text_Untitled
v 1.152895 -0.049307 1.358017
v 0.708450 -0.049307 1.358017
v 0.708450 -0.049307 0.802461
v 1.152895 -0.049307 0.802461
v 1.152895 -0.049307 0.913573
v 0.819561 -0.049307 0.913573
v 0.819561 -0.049307 1.246906
v 1.152895 -0.049307 1.246906
v 1.152895 -0.137307 1.358017
v 0.708450 -0.137307 1.358017
v 0.708450 -0.137307 0.802461
v 1.152895 -0.137307 0.802461
v 1.152895 -0.137307 0.913573
v 0.819561 -0.137307 0.913573
v 0.819561 -0.137307 1.246906
v 1.152895 -0.137307 1.246906
v 1.152895 -0.137307 1.358017
v 1.154395 -0.136906 1.359517
v 1.155493 -0.135807 1.360615
v 1.155895 -0.134308 1.361017
v 0.708450 -0.137307 1.358017
v 0.706950 -0.136906 1.359517
v 0.705852 -0.135807 1.360615
v 0.705450 -0.134308 1.361017
v 0.708450 -0.137307 0.802461
v 0.706950 -0.136906 0.800961
v 0.705852 -0.135807 0.799863
v 0.705450 -0.134308 0.799461
v 1.152895 -0.137307 0.802461
v 1.154395 -0.136906 0.800961
v 1.155493 -0.135807 0.799863
v 1.155895 -0.134308 0.799461
v 1.152895 -0.137307 0.913573
v 1.154395 -0.136906 0.915073
v 1.155493 -0.135807 0.916171
v 1.155895 -0.134308 0.916573
v 0.819561 -0.137307 0.913573
v 0.821061 -0.136906 0.915073
v 0.822160 -0.135807 0.916171
v 0.822561 -0.134308 0.916573
v 0.819561 -0.137307 1.246906
v 0.821061 -0.136906 1.245406
v 0.822160 -0.135807 1.244308
v 0.822561 -0.134308 1.243906
v 1.152895 -0.137307 1.246906
v 1.154395 -0.136906 1.245406
v 1.155493 -0.135807 1.244308
v 1.155895 -0.134308 1.243906
v 1.155895 -0.134308 1.361017
v 1.155895 -0.052307 1.361017
v 0.705450 -0.134308 1.361017
v 0.705450 -0.052307 1.361017
v 0.705450 -0.134308 0.799461
v 0.705450 -0.052307 0.799461
v 1.155895 -0.134308 0.799461
v 1.155895 -0.052307 0.799461
v 1.155895 -0.134308 0.916573
v 1.155895 -0.052307 0.916573
v 0.822561 -0.134308 0.916573
v 0.822561 -0.052307 0.916573
v 0.822561 -0.134308 1.243906
v 0.822561 -0.052307 1.243906
v 1.155895 -0.134308 1.243906
v 1.155895 -0.052307 1.243906
v 1.155895 -0.052307 1.361017
v 1.155493 -0.050807 1.360615
v 1.154395 -0.049709 1.359517
v 1.152895 -0.049307 1.358017
v 0.705450 -0.052307 1.361017
v 0.705852 -0.050807 1.360615
v 0.706950 -0.049709 1.359517
v 0.708450 -0.049307 1.358017
v 0.705450 -0.052307 0.799461
v 0.705852 -0.050807 0.799863
v 0.706950 -0.049709 0.800961
v 0.708450 -0.049307 0.802461
v 1.155895 -0.052307 0.799461
v 1.155493 -0.050807 0.799863
v 1.154395 -0.049709 0.800961
v 1.152895 -0.049307 0.802461
v 1.155895 -0.052307 0.916573
v 1.155493 -0.050807 0.916171
v 1.154395 -0.049709 0.915073
v 1.152895 -0.049307 0.913573
v 0.822561 -0.052307 0.916573
v 0.822160 -0.050807 0.916171
v 0.821061 -0.049709 0.915073
v 0.819561 -0.049307 0.913573
v 0.822561 -0.052307 1.243906
v 0.822160 -0.050807 1.244308
v 0.821061 -0.049709 1.245406
v 0.819561 -0.049307 1.246906
v 1.155895 -0.052307 1.243906
v 1.155493 -0.050807 1.244308
v 1.154395 -0.049709 1.245406
v 1.152895 -0.049307 1.246906
vn 0.000000 1.000000 0.000000
vn 0.000000 -1.000000 0.000000
vn 0.333200 -0.882000 0.333200
vn -0.333200 -0.882000 0.333200
vn -0.131600 -0.982500 0.131600
vn 0.131600 -0.982500 0.131600
vn 0.588500 -0.554200 0.588500
vn -0.588500 -0.554200 0.588500
vn 0.661200 -0.354400 0.661200
vn -0.661200 -0.354400 0.661200
vn -0.333200 -0.882000 -0.333200
vn -0.131600 -0.982500 -0.131600
vn -0.588500 -0.554200 -0.588500
vn -0.661200 -0.354400 -0.661200
vn 0.333100 -0.882000 -0.333200
vn 0.131600 -0.982500 -0.131600
vn 0.588500 -0.554200 -0.588500
vn 0.661200 -0.354400 -0.661200
vn 0.333100 -0.882000 0.333200
vn 0.661200 -0.354300 0.661200
vn 0.208500 -0.955500 0.208500
vn 0.513500 -0.687500 0.513500
vn 0.208500 -0.955500 -0.208500
vn 0.513500 -0.687500 -0.513400
vn 0.661200 -0.354300 -0.661200
vn 0.333200 -0.882000 -0.333100
vn 0.588500 -0.554200 -0.588600
vn 0.707100 0.000000 0.707100
vn -0.707100 0.000000 0.707100
vn -0.707100 0.000000 -0.707100
vn 0.707100 0.000000 -0.707100
vn 0.588500 0.554200 0.588500
vn -0.588500 0.554200 0.588500
vn -0.661200 0.354400 0.661200
vn 0.661200 0.354400 0.661200
vn 0.333200 0.882000 0.333200
vn -0.333200 0.882000 0.333200
vn 0.131600 0.982500 0.131600
vn -0.131600 0.982500 0.131600
vn -0.588500 0.554200 -0.588500
vn -0.661200 0.354400 -0.661200
vn -0.333200 0.882000 -0.333200
vn -0.131600 0.982500 -0.131600
vn 0.588500 0.554200 -0.588500
vn 0.661200 0.354400 -0.661200
vn 0.333100 0.882000 -0.333200
vn 0.131600 0.982500 -0.131600
vn 0.661200 0.354300 0.661200
vn 0.333100 0.882000 0.333200
vn 0.513500 0.687500 0.513500
vn 0.208500 0.955500 0.208500
vn 0.513500 0.687500 -0.513400
vn 0.661200 0.354300 -0.661200
vn 0.208500 0.955500 -0.208500
vn 0.588500 0.554200 -0.588600
vn 0.333200 0.882000 -0.333100
usemtl None
s off
f 2//1 6//1 3//1
f 6//1 4//1 3//1
f 6//1 5//1 4//1
f 2//1 7//1 6//1
f 2//1 8//1 7//1
f 2//1 1//1 8//1
f 14//2 10//2 11//2
f 12//2 14//2 11//2
f 13//2 14//2 12//2
f 15//2 10//2 14//2
f 16//2 10//2 15//2
f 9//2 10//2 16//2
s 1
f 18//3 22//4 21//5 17//6
f 19//7 23//8 22//4 18//3
f 20//9 24//10 23//8 19//7
f 22//4 26//11 25//12 21//5
f 23//8 27//13 26//11 22//4
f 24//10 28//14 27//13 23//8
f 26//11 30//15 29//16 25//12
f 27//13 31//17 30//15 26//11
f 28//14 32//18 31//17 27//13
f 30//15 34//19 33//6 29//16
f 31//17 35//7 34//19 30//15
f 32//18 36//20 35//7 31//17
f 34//19 38//21 37//6 33//6
f 35//7 39//22 38//21 34//19
f 36//20 40//20 39//22 35//7
f 38//21 42//23 41//16 37//6
f 39//22 43//24 42//23 38//21
f 40//20 44//25 43//24 39//22
f 42//23 46//26 45//16 41//16
f 43//24 47//27 46//26 42//23
f 44//25 48//25 47//27 43//24
f 46//26 18//3 17//6 45//16
f 47//27 19//7 18//3 46//26
f 48//25 20//9 19//7 47//27
f 50//28 52//29 51//29 49//28
f 52//29 54//30 53//30 51//29
f 54//30 56//31 55//31 53//30
f 56//31 58//28 57//28 55//31
f 58//28 60//28 59//28 57//28
f 60//28 62//31 61//31 59//28
f 62//31 64//31 63//31 61//31
f 64//31 50//28 49//28 63//31
f 66//32 70//33 69//34 65//35
f 67//36 71//37 70//33 66//32
f 68//38 72//39 71//37 67//36
f 70//33 74//40 73//41 69//34
f 71//37 75//42 74//40 70//33
f 72//39 76//43 75//42 71//37
f 74//40 78//44 77//45 73//41
f 75//42 79//46 78//44 74//40
f 76//43 80//47 79//46 75//42
f 78//44 82//32 81//48 77//45
f 79//46 83//49 82//32 78//44
f 80//47 84//38 83//49 79//46
f 82//32 86//50 85//48 81//48
f 83//49 87//51 86//50 82//32
f 84//38 88//38 87//51 83//49
f 86//50 90//52 89//53 85//48
f 87//51 91//54 90//52 86//50
f 88//38 92//47 91//54 87//51
f 90//52 94//55 93//53 89//53
f 91//54 95//56 94//55 90//52
f 92//47 96//47 95//56 91//54
f 94//55 66//32 65//35 93//53
f 95//56 67//36 66//32 94//55
f 96//47 68//38 67//36 95//56
