# Blender v2.76 (sub 0) OBJ File: ''
# www.blender.org
mtllib e.mtl
o Text_Untitled
v 1.152895 -0.049307 1.358017
v 0.708450 -0.049307 1.358017
v 0.708450 -0.049307 0.802461
v 1.152895 -0.049307 0.802461
v 1.152895 -0.049307 0.913573
v 0.819561 -0.049307 0.913573
v 0.819561 -0.049307 1.024684
v 1.152895 -0.049307 1.024684
v 1.152895 -0.049307 1.135795
v 0.819561 -0.049307 1.135795
v 0.819561 -0.049307 1.246906
v 1.152895 -0.049307 1.246906
v 1.152895 -0.137307 1.358017
v 0.708450 -0.137307 1.358017
v 0.708450 -0.137307 0.802461
v 1.152895 -0.137307 0.802461
v 1.152895 -0.137307 0.913573
v 0.819561 -0.137307 0.913573
v 0.819561 -0.137307 1.024684
v 1.152895 -0.137307 1.024684
v 1.152895 -0.137307 1.135795
v 0.819561 -0.137307 1.135795
v 0.819561 -0.137307 1.246906
v 1.152895 -0.137307 1.246906
v 1.152895 -0.137307 1.358017
v 1.154395 -0.136906 1.359517
v 1.155493 -0.135807 1.360615
v 1.155895 -0.134308 1.361017
v 0.708450 -0.137307 1.358017
v 0.706950 -0.136906 1.359517
v 0.705852 -0.135807 1.360615
v 0.705450 -0.134308 1.361017
v 0.708450 -0.137307 0.802461
v 0.706950 -0.136906 0.800961
v 0.705852 -0.135807 0.799863
v 0.705450 -0.134308 0.799461
v 1.152895 -0.137307 0.802461
v 1.154395 -0.136906 0.800961
v 1.155493 -0.135807 0.799863
v 1.155895 -0.134308 0.799461
v 1.152895 -0.137307 0.913573
v 1.154395 -0.136906 0.915073
v 1.155493 -0.135807 0.916171
v 1.155895 -0.134308 0.916573
v 0.819561 -0.137307 0.913573
v 0.821061 -0.136906 0.915073
v 0.822160 -0.135807 0.916171
v 0.822561 -0.134308 0.916573
v 0.819561 -0.137307 1.024684
v 0.821061 -0.136906 1.023184
v 0.822160 -0.135807 1.022086
v 0.822561 -0.134308 1.021684
v 1.152895 -0.137307 1.024684
v 1.154395 -0.136906 1.023184
v 1.155493 -0.135807 1.022086
v 1.155895 -0.134308 1.021684
v 1.152895 -0.137307 1.135795
v 1.154395 -0.136906 1.137295
v 1.155493 -0.135807 1.138393
v 1.155895 -0.134308 1.138795
v 0.819561 -0.137307 1.135795
v 0.821061 -0.136906 1.137295
v 0.822160 -0.135807 1.138393
v 0.822561 -0.134308 1.138795
v 0.819561 -0.137307 1.246906
v 0.821061 -0.136906 1.245406
v 0.822160 -0.135807 1.244308
v 0.822561 -0.134308 1.243906
v 1.152895 -0.137307 1.246906
v 1.154395 -0.136906 1.245406
v 1.155493 -0.135807 1.244308
v 1.155895 -0.134308 1.243906
v 1.155895 -0.134308 1.361017
v 1.155895 -0.052307 1.361017
v 0.705450 -0.134308 1.361017
v 0.705450 -0.052307 1.361017
v 0.705450 -0.134308 0.799461
v 0.705450 -0.052307 0.799461
v 1.155895 -0.134308 0.799461
v 1.155895 -0.052307 0.799461
v 1.155895 -0.134308 0.916573
v 1.155895 -0.052307 0.916573
v 0.822561 -0.134308 0.916573
v 0.822561 -0.052307 0.916573
v 0.822561 -0.134308 1.021684
v 0.822561 -0.052307 1.021684
v 1.155895 -0.134308 1.021684
v 1.155895 -0.052307 1.021684
v 1.155895 -0.134308 1.138795
v 1.155895 -0.052307 1.138795
v 0.822561 -0.134308 1.138795
v 0.822561 -0.052307 1.138795
v 0.822561 -0.134308 1.243906
v 0.822561 -0.052307 1.243906
v 1.155895 -0.134308 1.243906
v 1.155895 -0.052307 1.243906
v 1.155895 -0.052307 1.361017
v 1.155493 -0.050807 1.360615
v 1.154395 -0.049709 1.359517
v 1.152895 -0.049307 1.358017
v 0.705450 -0.052307 1.361017
v 0.705852 -0.050807 1.360615
v 0.706950 -0.049709 1.359517
v 0.708450 -0.049307 1.358017
v 0.705450 -0.052307 0.799461
v 0.705852 -0.050807 0.799863
v 0.706950 -0.049709 0.800961
v 0.708450 -0.049307 0.802461
v 1.155895 -0.052307 0.799461
v 1.155493 -0.050807 0.799863
v 1.154395 -0.049709 0.800961
v 1.152895 -0.049307 0.802461
v 1.155895 -0.052307 0.916573
v 1.155493 -0.050807 0.916171
v 1.154395 -0.049709 0.915073
v 1.152895 -0.049307 0.913573
v 0.822561 -0.052307 0.916573
v 0.822160 -0.050807 0.916171
v 0.821061 -0.049709 0.915073
v 0.819561 -0.049307 0.913573
v 0.822561 -0.052307 1.021684
v 0.822160 -0.050807 1.022086
v 0.821061 -0.049709 1.023184
v 0.819561 -0.049307 1.024684
v 1.155895 -0.052307 1.021684
v 1.155493 -0.050807 1.022086
v 1.154395 -0.049709 1.023184
v 1.152895 -0.049307 1.024684
v 1.155895 -0.052307 1.138795
v 1.155493 -0.050807 1.138393
v 1.154395 -0.049709 1.137295
v 1.152895 -0.049307 1.135795
v 0.822561 -0.052307 1.138795
v 0.822160 -0.050807 1.138393
v 0.821061 -0.049709 1.137295
v 0.819561 -0.049307 1.135795
v 0.822561 -0.052307 1.243906
v 0.822160 -0.050807 1.244308
v 0.821061 -0.049709 1.245406
v 0.819561 -0.049307 1.246906
v 1.155895 -0.052307 1.243906
v 1.155493 -0.050807 1.244308
v 1.154395 -0.049709 1.245406
v 1.152895 -0.049307 1.246906
vn 0.000000 1.000000 0.000000
vn 0.000000 -1.000000 0.000000
vn 0.333200 -0.882000 0.333200
vn -0.333200 -0.882000 0.333200
vn -0.131600 -0.982500 0.131600
vn 0.131600 -0.982500 0.131600
vn 0.588500 -0.554200 0.588500
vn -0.588500 -0.554200 0.588500
vn 0.661200 -0.354400 0.661200
vn -0.661200 -0.354400 0.661200
vn -0.333200 -0.882000 -0.333200
vn -0.131600 -0.982500 -0.131600
vn -0.588500 -0.554200 -0.588500
vn -0.661200 -0.354400 -0.661200
vn 0.333100 -0.882000 -0.333200
vn 0.131600 -0.982500 -0.131600
vn 0.588500 -0.554200 -0.588500
vn 0.661200 -0.354400 -0.661200
vn 0.333100 -0.882000 0.333200
vn 0.661200 -0.354300 0.661200
vn 0.208500 -0.955500 0.208500
vn 0.513400 -0.687500 0.513500
vn 0.208500 -0.955500 -0.208500
vn 0.513500 -0.687500 -0.513500
vn 0.661200 -0.354300 -0.661200
vn 0.588500 -0.554200 -0.588600
vn 0.513500 -0.687500 -0.513400
vn 0.333200 -0.882000 -0.333100
vn 0.707100 0.000000 0.707100
vn -0.707100 0.000000 0.707100
vn -0.707100 0.000000 -0.707100
vn 0.707100 0.000000 -0.707100
vn 0.588500 0.554200 0.588500
vn -0.588500 0.554200 0.588500
vn -0.661200 0.354400 0.661200
vn 0.661200 0.354400 0.661200
vn 0.333200 0.882000 0.333200
vn -0.333200 0.882000 0.333200
vn 0.131600 0.982500 0.131600
vn -0.131600 0.982500 0.131600
vn -0.588500 0.554200 -0.588500
vn -0.661200 0.354400 -0.661200
vn -0.333200 0.882000 -0.333200
vn -0.131600 0.982500 -0.131600
vn 0.588500 0.554200 -0.588500
vn 0.661200 0.354400 -0.661200
vn 0.333100 0.882000 -0.333200
vn 0.131600 0.982500 -0.131600
vn 0.661200 0.354300 0.661200
vn 0.333100 0.882000 0.333200
vn 0.513400 0.687500 0.513500
vn 0.208500 0.955500 0.208500
vn 0.513500 0.687500 -0.513500
vn 0.661200 0.354300 -0.661200
vn 0.208500 0.955500 -0.208500
vn 0.588500 0.554200 -0.588600
vn 0.513500 0.687500 -0.513400
vn 0.333200 0.882000 -0.333100
usemtl None
s off
f 2//1 6//1 3//1
f 6//1 4//1 3//1
f 6//1 5//1 4//1
f 2//1 7//1 6//1
f 2//1 10//1 7//1
f 10//1 8//1 7//1
f 10//1 9//1 8//1
f 2//1 11//1 10//1
f 2//1 12//1 11//1
f 2//1 1//1 12//1
f 18//2 14//2 15//2
f 16//2 18//2 15//2
f 17//2 18//2 16//2
f 19//2 14//2 18//2
f 22//2 14//2 19//2
f 20//2 22//2 19//2
f 21//2 22//2 20//2
f 23//2 14//2 22//2
f 24//2 14//2 23//2
f 13//2 14//2 24//2
s 1
f 26//3 30//4 29//5 25//6
f 27//7 31//8 30//4 26//3
f 28//9 32//10 31//8 27//7
f 30//4 34//11 33//12 29//5
f 31//8 35//13 34//11 30//4
f 32//10 36//14 35//13 31//8
f 34//11 38//15 37//16 33//12
f 35//13 39//17 38//15 34//11
f 36//14 40//18 39//17 35//13
f 38//15 42//19 41//6 37//16
f 39//17 43//7 42//19 38//15
f 40//18 44//20 43//7 39//17
f 42//19 46//21 45//6 41//6
f 43//7 47//22 46//21 42//19
f 44//20 48//20 47//22 43//7
f 46//21 50//23 49//16 45//6
f 47//22 51//24 50//23 46//21
f 48//20 52//25 51//24 47//22
f 50//23 54//15 53//16 49//16
f 51//24 55//26 54//15 50//23
f 52//25 56//25 55//26 51//24
f 54//15 58//19 57//6 53//16
f 55//26 59//7 58//19 54//15
f 56//25 60//9 59//7 55//26
f 58//19 62//21 61//6 57//6
f 59//7 63//22 62//21 58//19
f 60//9 64//9 63//22 59//7
f 62//21 66//23 65//16 61//6
f 63//22 67//27 66//23 62//21
f 64//9 68//25 67//27 63//22
f 66//23 70//28 69//16 65//16
f 67//27 71//26 70//28 66//23
f 68//25 72//25 71//26 67//27
f 70//28 26//3 25//6 69//16
f 71//26 27//7 26//3 70//28
f 72//25 28//9 27//7 71//26
f 74//29 76//30 75//30 73//29
f 76//30 78//31 77//31 75//30
f 78//31 80//32 79//32 77//31
f 80//32 82//29 81//29 79//32
f 82//29 84//29 83//29 81//29
f 84//29 86//32 85//32 83//29
f 86//32 88//32 87//32 85//32
f 88//32 90//29 89//29 87//32
f 90//29 92//29 91//29 89//29
f 92//29 94//32 93//32 91//29
f 94//32 96//32 95//32 93//32
f 96//32 74//29 73//29 95//32
f 98//33 102//34 101//35 97//36
f 99//37 103//38 102//34 98//33
f 100//39 104//40 103//38 99//37
f 102//34 106//41 105//42 101//35
f 103//38 107//43 106//41 102//34
f 104//40 108//44 107//43 103//38
f 106//41 110//45 109//46 105//42
f 107//43 111//47 110//45 106//41
f 108//44 112//48 111//47 107//43
f 110//45 114//33 113//49 109//46
f 111//47 115//50 114//33 110//45
f 112//48 116//39 115//50 111//47
f 114//33 118//51 117//49 113//49
f 115//50 119//52 118//51 114//33
f 116//39 120//39 119//52 115//50
f 118//51 122//53 121//54 117//49
f 119//52 123//55 122//53 118//51
f 120//39 124//48 123//55 119//52
f 122//53 126//56 125//54 121//54
f 123//55 127//47 126//56 122//53
f 124//48 128//48 127//47 123//55
f 126//56 130//33 129//36 125//54
f 127//47 131//50 130//33 126//56
f 128//48 132//39 131//50 127//47
f 130//33 134//51 133//36 129//36
f 131//50 135//52 134//51 130//33
f 132//39 136//39 135//52 131//50
f 134//51 138//57 137//54 133//36
f 135//52 139//55 138//57 134//51
f 136//39 140//48 139//55 135//52
f 138//57 142//56 141//54 137//54
f 139//55 143//58 142//56 138//57
f 140//48 144//48 143//58 139//55
f 142//56 98//33 97//36 141//54
f 143//58 99//37 98//33 142//56
f 144//48 100//39 99//37 143//58
