# Blender v2.76 (sub 0) OBJ File: ''
# www.blender.org
mtllib h.mtl
o Text_Untitled
v 0.819561 -0.049307 1.358017
v 0.708450 -0.049307 1.358017
v 0.708450 -0.049307 0.802461
v 0.819561 -0.049307 0.802461
v 0.819561 -0.049307 1.024684
v 1.041784 -0.049307 1.024684
v 1.041784 -0.049307 0.802461
v 1.152895 -0.049307 0.802461
v 1.152895 -0.049307 1.358017
v 1.041784 -0.049307 1.358017
v 1.041784 -0.049307 1.135795
v 0.819561 -0.049307 1.135795
v 0.819561 -0.137307 1.358017
v 0.708450 -0.137307 1.358017
v 0.708450 -0.137307 0.802461
v 0.819561 -0.137307 0.802461
v 0.819561 -0.137307 1.024684
v 1.041784 -0.137307 1.024684
v 1.041784 -0.137307 0.802461
v 1.152895 -0.137307 0.802461
v 1.152895 -0.137307 1.358017
v 1.041784 -0.137307 1.358017
v 1.041784 -0.137307 1.135795
v 0.819561 -0.137307 1.135795
v 0.819561 -0.137307 1.358017
v 0.821061 -0.136906 1.359517
v 0.822160 -0.135807 1.360615
v 0.822561 -0.134308 1.361017
v 0.708450 -0.137307 1.358017
v 0.706950 -0.136906 1.359517
v 0.705852 -0.135807 1.360615
v 0.705450 -0.134308 1.361017
v 0.708450 -0.137307 0.802461
v 0.706950 -0.136906 0.800961
v 0.705852 -0.135807 0.799863
v 0.705450 -0.134308 0.799461
v 0.819561 -0.137307 0.802461
v 0.821061 -0.136906 0.800961
v 0.822160 -0.135807 0.799863
v 0.822561 -0.134308 0.799461
v 0.819561 -0.137307 1.024684
v 0.821061 -0.136906 1.023184
v 0.822160 -0.135807 1.022086
v 0.822561 -0.134308 1.021684
v 1.041784 -0.137307 1.024684
v 1.040284 -0.136906 1.023184
v 1.039186 -0.135807 1.022086
v 1.038784 -0.134308 1.021684
v 1.041784 -0.137307 0.802461
v 1.040284 -0.136906 0.800961
v 1.039186 -0.135807 0.799863
v 1.038784 -0.134308 0.799461
v 1.152895 -0.137307 0.802461
v 1.154395 -0.136906 0.800961
v 1.155493 -0.135807 0.799863
v 1.155895 -0.134308 0.799461
v 1.152895 -0.137307 1.358017
v 1.154395 -0.136906 1.359517
v 1.155493 -0.135807 1.360615
v 1.155895 -0.134308 1.361017
v 1.041784 -0.137307 1.358017
v 1.040284 -0.136906 1.359517
v 1.039186 -0.135807 1.360615
v 1.038784 -0.134308 1.361017
v 1.041784 -0.137307 1.135795
v 1.040284 -0.136906 1.137295
v 1.039186 -0.135807 1.138393
v 1.038784 -0.134308 1.138795
v 0.819561 -0.137307 1.135795
v 0.821061 -0.136906 1.137295
v 0.822160 -0.135807 1.138393
v 0.822561 -0.134308 1.138795
v 0.822561 -0.134308 1.361017
v 0.822561 -0.052307 1.361017
v 0.705450 -0.134308 1.361017
v 0.705450 -0.052307 1.361017
v 0.705450 -0.134308 0.799461
v 0.705450 -0.052307 0.799461
v 0.822561 -0.134308 0.799461
v 0.822561 -0.052307 0.799461
v 0.822561 -0.134308 1.021684
v 0.822561 -0.052307 1.021684
v 1.038784 -0.134308 1.021684
v 1.038784 -0.052307 1.021684
v 1.038784 -0.134308 0.799461
v 1.038784 -0.052307 0.799461
v 1.155895 -0.134308 0.799461
v 1.155895 -0.052307 0.799461
v 1.155895 -0.134308 1.361017
v 1.155895 -0.052307 1.361017
v 1.038784 -0.134308 1.361017
v 1.038784 -0.052307 1.361017
v 1.038784 -0.134308 1.138795
v 1.038784 -0.052307 1.138795
v 0.822561 -0.134308 1.138795
v 0.822561 -0.052307 1.138795
v 0.822561 -0.052307 1.361017
v 0.822160 -0.050807 1.360615
v 0.821061 -0.049709 1.359517
v 0.819561 -0.049307 1.358017
v 0.705450 -0.052307 1.361017
v 0.705852 -0.050807 1.360615
v 0.706950 -0.049709 1.359517
v 0.708450 -0.049307 1.358017
v 0.705450 -0.052307 0.799461
v 0.705852 -0.050807 0.799863
v 0.706950 -0.049709 0.800961
v 0.708450 -0.049307 0.802461
v 0.822561 -0.052307 0.799461
v 0.822160 -0.050807 0.799863
v 0.821061 -0.049709 0.800961
v 0.819561 -0.049307 0.802461
v 0.822561 -0.052307 1.021684
v 0.822160 -0.050807 1.022086
v 0.821061 -0.049709 1.023184
v 0.819561 -0.049307 1.024684
v 1.038784 -0.052307 1.021684
v 1.039186 -0.050807 1.022086
v 1.040284 -0.049709 1.023184
v 1.041784 -0.049307 1.024684
v 1.038784 -0.052307 0.799461
v 1.039186 -0.050807 0.799863
v 1.040284 -0.049709 0.800961
v 1.041784 -0.049307 0.802461
v 1.155895 -0.052307 0.799461
v 1.155493 -0.050807 0.799863
v 1.154395 -0.049709 0.800961
v 1.152895 -0.049307 0.802461
v 1.155895 -0.052307 1.361017
v 1.155493 -0.050807 1.360615
v 1.154395 -0.049709 1.359517
v 1.152895 -0.049307 1.358017
v 1.038784 -0.052307 1.361017
v 1.039186 -0.050807 1.360615
v 1.040284 -0.049709 1.359517
v 1.041784 -0.049307 1.358017
v 1.038784 -0.052307 1.138795
v 1.039186 -0.050807 1.138393
v 1.040284 -0.049709 1.137295
v 1.041784 -0.049307 1.135795
v 0.822561 -0.052307 1.138795
v 0.822160 -0.050807 1.138393
v 0.821061 -0.049709 1.137295
v 0.819561 -0.049307 1.135795
vn 0.000000 1.000000 0.000000
vn 0.000000 -1.000000 0.000000
vn 0.333200 -0.882000 0.333200
vn -0.333200 -0.882000 0.333200
vn -0.131600 -0.982500 0.131600
vn 0.131600 -0.982500 0.131600
vn 0.588500 -0.554200 0.588500
vn -0.588500 -0.554200 0.588500
vn 0.661200 -0.354400 0.661200
vn -0.661200 -0.354400 0.661200
vn -0.333200 -0.882000 -0.333200
vn -0.131600 -0.982500 -0.131600
vn -0.588500 -0.554200 -0.588500
vn -0.661200 -0.354400 -0.661200
vn 0.333200 -0.882000 -0.333200
vn 0.131600 -0.982500 -0.131600
vn 0.588600 -0.554200 -0.588500
vn 0.661200 -0.354300 -0.661200
vn 0.208500 -0.955500 -0.208500
vn 0.513500 -0.687500 -0.513500
vn -0.208500 -0.955500 -0.208500
vn -0.513400 -0.687500 -0.513500
vn -0.661200 -0.354300 -0.661200
vn -0.333100 -0.882000 -0.333200
vn 0.333100 -0.882000 -0.333200
vn 0.588500 -0.554200 -0.588500
vn 0.661200 -0.354400 -0.661200
vn 0.333100 -0.882000 0.333200
vn -0.333100 -0.882000 0.333200
vn -0.588600 -0.554200 0.588500
vn -0.661200 -0.354300 0.661200
vn -0.208500 -0.955500 0.208500
vn -0.513400 -0.687500 0.513500
vn 0.208500 -0.955500 0.208500
vn 0.513400 -0.687500 0.513500
vn 0.707100 0.000000 0.707100
vn -0.707100 0.000000 0.707100
vn -0.707100 0.000000 -0.707100
vn 0.707100 0.000000 -0.707100
vn 0.588500 0.554200 0.588500
vn -0.588500 0.554200 0.588500
vn -0.661200 0.354400 0.661200
vn 0.661200 0.354400 0.661200
vn 0.333200 0.882000 0.333200
vn -0.333200 0.882000 0.333200
vn 0.131600 0.982500 0.131600
vn -0.131600 0.982500 0.131600
vn -0.588500 0.554200 -0.588500
vn -0.661200 0.354400 -0.661200
vn -0.333200 0.882000 -0.333200
vn -0.131600 0.982500 -0.131600
vn 0.588600 0.554200 -0.588500
vn 0.661200 0.354300 -0.661200
vn 0.333200 0.882000 -0.333200
vn 0.131600 0.982500 -0.131600
vn 0.513500 0.687500 -0.513500
vn 0.208500 0.955500 -0.208500
vn -0.513400 0.687500 -0.513500
vn -0.661200 0.354300 -0.661200
vn -0.208500 0.955500 -0.208500
vn -0.333100 0.882000 -0.333200
vn 0.588500 0.554200 -0.588500
vn 0.661200 0.354400 -0.661200
vn 0.333100 0.882000 -0.333200
vn 0.333100 0.882000 0.333200
vn -0.588600 0.554200 0.588500
vn -0.661200 0.354300 0.661200
vn -0.333100 0.882000 0.333200
vn -0.513400 0.687500 0.513500
vn -0.208500 0.955500 0.208500
vn 0.513400 0.687500 0.513500
vn 0.208500 0.955500 0.208500
usemtl None
s off
f 2//1 4//1 3//1
f 2//1 5//1 4//1
f 6//1 8//1 7//1
f 6//1 9//1 8//1
f 2//1 12//1 5//1
f 12//1 6//1 5//1
f 12//1 11//1 6//1
f 11//1 9//1 6//1
f 2//1 1//1 12//1
f 10//1 9//1 11//1
f 16//2 14//2 15//2
f 17//2 14//2 16//2
f 20//2 18//2 19//2
f 21//2 18//2 20//2
f 24//2 14//2 17//2
f 18//2 24//2 17//2
f 23//2 24//2 18//2
f 21//2 23//2 18//2
f 13//2 14//2 24//2
f 21//2 22//2 23//2
s 1
f 26//3 30//4 29//5 25//6
f 27//7 31//8 30//4 26//3
f 28//9 32//10 31//8 27//7
f 30//4 34//11 33//12 29//5
f 31//8 35//13 34//11 30//4
f 32//10 36//14 35//13 31//8
f 34//11 38//15 37//16 33//12
f 35//13 39//17 38//15 34//11
f 36//14 40//18 39//17 35//13
f 38//15 42//19 41//16 37//16
f 39//17 43//20 42//19 38//15
f 40//18 44//18 43//20 39//17
f 42//19 46//21 45//12 41//16
f 43//20 47//22 46//21 42//19
f 44//18 48//23 47//22 43//20
f 46//21 50//24 49//12 45//12
f 47//22 51//13 50//24 46//21
f 48//23 52//14 51//13 47//22
f 50//24 54//25 53//16 49//12
f 51//13 55//26 54//25 50//24
f 52//14 56//27 55//26 51//13
f 54//25 58//28 57//6 53//16
f 55//26 59//7 58//28 54//25
f 56//27 60//9 59//7 55//26
f 58//28 62//29 61//5 57//6
f 59//7 63//30 62//29 58//28
f 60//9 64//31 63//30 59//7
f 62//29 66//32 65//5 61//5
f 63//30 67//33 66//32 62//29
f 64//31 68//31 67//33 63//30
f 66//32 70//34 69//6 65//5
f 67//33 71//35 70//34 66//32
f 68//31 72//9 71//35 67//33
f 70//34 26//3 25//6 69//6
f 71//35 27//7 26//3 70//34
f 72//9 28//9 27//7 71//35
f 74//36 76//37 75//37 73//36
f 76//37 78//38 77//38 75//37
f 78//38 80//39 79//39 77//38
f 80//39 82//39 81//39 79//39
f 82//39 84//38 83//38 81//39
f 84//38 86//38 85//38 83//38
f 86//38 88//39 87//39 85//38
f 88//39 90//36 89//36 87//39
f 90//36 92//37 91//37 89//36
f 92//37 94//37 93//37 91//37
f 94//37 96//36 95//36 93//37
f 96//36 74//36 73//36 95//36
f 98//40 102//41 101//42 97//43
f 99//44 103//45 102//41 98//40
f 100//46 104//47 103//45 99//44
f 102//41 106//48 105//49 101//42
f 103//45 107//50 106//48 102//41
f 104//47 108//51 107//50 103//45
f 106//48 110//52 109//53 105//49
f 107//50 111//54 110//52 106//48
f 108//51 112//55 111//54 107//50
f 110//52 114//56 113//53 109//53
f 111//54 115//57 114//56 110//52
f 112//55 116//55 115//57 111//54
f 114//56 118//58 117//59 113//53
f 115//57 119//60 118//58 114//56
f 116//55 120//51 119//60 115//57
f 118//58 122//48 121//49 117//59
f 119//60 123//61 122//48 118//58
f 120//51 124//51 123//61 119//60
f 122//48 126//62 125//63 121//49
f 123//61 127//64 126//62 122//48
f 124//51 128//55 127//64 123//61
f 126//62 130//40 129//43 125//63
f 127//64 131//65 130//40 126//62
f 128//55 132//46 131//65 127//64
f 130//40 134//66 133//67 129//43
f 131//65 135//68 134//66 130//40
f 132//46 136//47 135//68 131//65
f 134//66 138//69 137//67 133//67
f 135//68 139//70 138//69 134//66
f 136//47 140//47 139//70 135//68
f 138//69 142//71 141//43 137//67
f 139//70 143//72 142//71 138//69
f 140//47 144//46 143//72 139//70
f 142//71 98//40 97//43 141//43
f 143//72 99//44 98//40 142//71
f 144//46 100//46 99//44 143//72
