# Blender v2.76 (sub 0) OBJ File: ''
# www.blender.org
mtllib j.mtl
o Text_Untitled
v 1.041784 -0.049307 1.358017
v 0.708450 -0.049307 1.358017
v 0.708450 -0.049307 1.246906
v 0.930673 -0.049307 1.246906
v 0.930673 -0.049307 0.802461
v 1.041784 -0.049307 0.802461
v 1.041784 -0.137307 1.358017
v 0.708450 -0.137307 1.358017
v 0.708450 -0.137307 1.246906
v 0.930673 -0.137307 1.246906
v 0.930673 -0.137307 0.802461
v 1.041784 -0.137307 0.802461
v 1.041784 -0.137307 1.358017
v 1.043284 -0.136906 1.359517
v 1.044382 -0.135807 1.360615
v 1.044784 -0.134308 1.361017
v 0.708450 -0.137307 1.358017
v 0.706950 -0.136906 1.359517
v 0.705852 -0.135807 1.360615
v 0.705450 -0.134308 1.361017
v 0.708450 -0.137307 1.246906
v 0.706950 -0.136906 1.245406
v 0.705852 -0.135807 1.244308
v 0.705450 -0.134308 1.243906
v 0.930673 -0.137307 1.246906
v 0.929173 -0.136906 1.245406
v 0.928074 -0.135807 1.244308
v 0.927673 -0.134308 1.243906
v 0.930673 -0.137307 0.802461
v 0.929173 -0.136906 0.800961
v 0.928074 -0.135807 0.799863
v 0.927673 -0.134308 0.799461
v 1.041784 -0.137307 0.802461
v 1.043284 -0.136906 0.800961
v 1.044382 -0.135807 0.799863
v 1.044784 -0.134308 0.799461
v 1.044784 -0.134308 1.361017
v 1.044784 -0.052307 1.361017
v 0.705450 -0.134308 1.361017
v 0.705450 -0.052307 1.361017
v 0.705450 -0.134308 1.243906
v 0.705450 -0.052307 1.243906
v 0.927673 -0.134308 1.243906
v 0.927673 -0.052307 1.243906
v 0.927673 -0.134308 0.799461
v 0.927673 -0.052307 0.799461
v 1.044784 -0.134308 0.799461
v 1.044784 -0.052307 0.799461
v 1.044784 -0.052307 1.361017
v 1.044382 -0.050807 1.360615
v 1.043284 -0.049709 1.359517
v 1.041784 -0.049307 1.358017
v 0.705450 -0.052307 1.361017
v 0.705852 -0.050807 1.360615
v 0.706950 -0.049709 1.359517
v 0.708450 -0.049307 1.358017
v 0.705450 -0.052307 1.243906
v 0.705852 -0.050807 1.244308
v 0.706950 -0.049709 1.245406
v 0.708450 -0.049307 1.246906
v 0.927673 -0.052307 1.243906
v 0.928074 -0.050807 1.244308
v 0.929173 -0.049709 1.245406
v 0.930673 -0.049307 1.246906
v 0.927673 -0.052307 0.799461
v 0.928074 -0.050807 0.799863
v 0.929173 -0.049709 0.800961
v 0.930673 -0.049307 0.802461
v 1.044784 -0.052307 0.799461
v 1.044382 -0.050807 0.799863
v 1.043284 -0.049709 0.800961
v 1.041784 -0.049307 0.802461
vn 0.000000 1.000000 0.000000
vn 0.000000 -1.000000 0.000000
vn 0.333100 -0.882000 0.333200
vn -0.333200 -0.882000 0.333200
vn -0.131600 -0.982500 0.131600
vn 0.131600 -0.982500 0.131600
vn 0.588600 -0.554200 0.588500
vn -0.588500 -0.554200 0.588500
vn 0.661200 -0.354300 0.661200
vn -0.661200 -0.354400 0.661200
vn -0.333200 -0.882000 -0.333100
vn -0.131600 -0.982500 -0.131600
vn -0.588500 -0.554200 -0.588600
vn -0.661200 -0.354300 -0.661200
vn -0.208500 -0.955500 -0.208500
vn -0.513500 -0.687500 -0.513400
vn -0.661200 -0.354400 -0.661200
vn -0.333200 -0.882000 -0.333200
vn -0.588500 -0.554200 -0.588500
vn 0.333100 -0.882000 -0.333200
vn 0.131600 -0.982500 -0.131600
vn 0.588600 -0.554200 -0.588500
vn 0.661200 -0.354300 -0.661200
vn 0.707100 0.000000 0.707100
vn -0.707100 0.000000 0.707100
vn -0.707100 0.000000 -0.707100
vn 0.707100 0.000000 -0.707100
vn 0.588600 0.554200 0.588500
vn -0.588500 0.554200 0.588500
vn -0.661200 0.354400 0.661200
vn 0.661200 0.354300 0.661200
vn 0.333100 0.882000 0.333200
vn -0.333200 0.882000 0.333200
vn 0.131600 0.982500 0.131600
vn -0.131600 0.982500 0.131600
vn -0.588500 0.554200 -0.588600
vn -0.661200 0.354300 -0.661200
vn -0.333200 0.882000 -0.333100
vn -0.131600 0.982500 -0.131600
vn -0.513500 0.687500 -0.513400
vn -0.661200 0.354400 -0.661200
vn -0.208500 0.955500 -0.208500
vn -0.588500 0.554200 -0.588500
vn -0.333200 0.882000 -0.333200
vn 0.588600 0.554200 -0.588500
vn 0.661200 0.354300 -0.661200
vn 0.333100 0.882000 -0.333200
vn 0.131600 0.982500 -0.131600
usemtl None
s off
f 4//1 6//1 5//1
f 4//1 1//1 6//1
f 2//1 4//1 3//1
f 2//1 1//1 4//1
f 12//2 10//2 11//2
f 7//2 10//2 12//2
f 10//2 8//2 9//2
f 7//2 8//2 10//2
s 1
f 14//3 18//4 17//5 13//6
f 15//7 19//8 18//4 14//3
f 16//9 20//10 19//8 15//7
f 18//4 22//11 21//12 17//5
f 19//8 23//13 22//11 18//4
f 20//10 24//14 23//13 19//8
f 22//11 26//15 25//12 21//12
f 23//13 27//16 26//15 22//11
f 24//14 28//17 27//16 23//13
f 26//15 30//18 29//12 25//12
f 27//16 31//19 30//18 26//15
f 28//17 32//17 31//19 27//16
f 30//18 34//20 33//21 29//12
f 31//19 35//22 34//20 30//18
f 32//17 36//23 35//22 31//19
f 34//20 14//3 13//6 33//21
f 35//22 15//7 14//3 34//20
f 36//23 16//9 15//7 35//22
f 38//24 40//25 39//25 37//24
f 40//25 42//26 41//26 39//25
f 42//26 44//26 43//26 41//26
f 44//26 46//26 45//26 43//26
f 46//26 48//27 47//27 45//26
f 48//27 38//24 37//24 47//27
f 50//28 54//29 53//30 49//31
f 51//32 55//33 54//29 50//28
f 52//34 56//35 55//33 51//32
f 54//29 58//36 57//37 53//30
f 55//33 59//38 58//36 54//29
f 56//35 60//39 59//38 55//33
f 58//36 62//40 61//41 57//37
f 59//38 63//42 62//40 58//36
f 60//39 64//39 63//42 59//38
f 62//40 66//43 65//41 61//41
f 63//42 67//44 66//43 62//40
f 64//39 68//39 67//44 63//42
f 66//43 70//45 69//46 65//41
f 67//44 71//47 70//45 66//43
f 68//39 72//48 71//47 67//44
f 70//45 50//28 49//31 69//46
f 71//47 51//32 50//28 70//45
f 72//48 52//34 51//32 71//47
