# Blender v2.76 (sub 0) OBJ File: ''
# www.blender.org
mtllib less.mtl
o Text
v 1.342000 -0.047640 0.746097
v 1.342000 -0.047640 0.883259
v 1.003018 -0.047640 1.023900
v 1.342000 -0.047640 1.164542
v 1.342000 -0.047640 1.301703
v 0.822000 -0.047640 1.080100
v 0.822000 -0.047640 0.967700
v 1.342000 -0.147640 0.746097
v 1.342000 -0.147640 0.883259
v 1.003018 -0.147640 1.023900
v 1.342000 -0.147640 1.164542
v 1.342000 -0.147640 1.301703
v 0.822000 -0.147640 1.080100
v 0.822000 -0.147640 0.967700
v 1.342000 -0.147640 0.746097
v 1.343500 -0.147238 0.743827
v 1.344598 -0.146140 0.742166
v 1.345000 -0.144640 0.741557
v 1.342000 -0.147640 0.883259
v 1.343500 -0.147238 0.884260
v 1.344598 -0.146140 0.884993
v 1.345000 -0.144640 0.885262
v 1.003018 -0.147640 1.023900
v 1.006932 -0.147238 1.023900
v 1.009797 -0.146140 1.023900
v 1.010846 -0.144640 1.023900
v 1.342000 -0.147640 1.164542
v 1.343500 -0.147238 1.163540
v 1.344598 -0.146140 1.162807
v 1.345000 -0.144640 1.162538
v 1.342000 -0.147640 1.301703
v 1.343500 -0.147238 1.303973
v 1.344598 -0.146140 1.305635
v 1.345000 -0.144640 1.306243
v 0.822000 -0.147640 1.080100
v 0.820500 -0.147238 1.081091
v 0.819402 -0.146140 1.081817
v 0.819000 -0.144640 1.082083
v 0.822000 -0.147640 0.967700
v 0.820500 -0.147238 0.966709
v 0.819402 -0.146140 0.965983
v 0.819000 -0.144640 0.965718
v 1.345000 -0.144640 0.741557
v 1.345000 -0.050640 0.741557
v 1.345000 -0.144640 0.885262
v 1.345000 -0.050640 0.885262
v 1.010846 -0.144640 1.023900
v 1.010846 -0.050640 1.023900
v 1.345000 -0.144640 1.162538
v 1.345000 -0.050640 1.162538
v 1.345000 -0.144640 1.306243
v 1.345000 -0.050640 1.306243
v 0.819000 -0.144640 1.082083
v 0.819000 -0.050640 1.082083
v 0.819000 -0.144640 0.965718
v 0.819000 -0.050640 0.965718
v 1.345000 -0.050640 0.741557
v 1.344598 -0.049140 0.742166
v 1.343500 -0.048042 0.743827
v 1.342000 -0.047640 0.746097
v 1.345000 -0.050640 0.885262
v 1.344598 -0.049140 0.884993
v 1.343500 -0.048042 0.884260
v 1.342000 -0.047640 0.883259
v 1.010846 -0.050640 1.023900
v 1.009797 -0.049140 1.023900
v 1.006932 -0.048042 1.023900
v 1.003018 -0.047640 1.023900
v 1.345000 -0.050640 1.162538
v 1.344598 -0.049140 1.162807
v 1.343500 -0.048042 1.163540
v 1.342000 -0.047640 1.164542
v 1.345000 -0.050640 1.306243
v 1.344598 -0.049140 1.305635
v 1.343500 -0.048042 1.303973
v 1.342000 -0.047640 1.301703
v 0.819000 -0.050640 1.082083
v 0.819402 -0.049140 1.081817
v 0.820500 -0.048042 1.081091
v 0.822000 -0.047640 1.080100
v 0.819000 -0.050640 0.965718
v 0.819402 -0.049140 0.965983
v 0.820500 -0.048042 0.966709
v 0.822000 -0.047640 0.967700
vn 0.000000 1.000000 0.000000
vn 0.000000 -1.000000 0.000000
vn 0.225500 -0.912500 -0.341300
vn 0.420300 -0.862800 0.280700
vn 0.180900 -0.976000 0.120800
vn 0.080600 -0.989300 -0.121900
vn 0.434900 -0.614500 -0.658200
vn 0.711300 -0.518000 0.475000
vn 0.495800 -0.437100 -0.750300
vn 0.791500 -0.306700 0.528600
vn 0.136300 -0.990700 0.000000
vn 0.102100 -0.994800 0.000000
vn 0.456700 -0.889600 0.000000
vn 0.819500 -0.573000 0.000000
vn 0.420300 -0.862900 -0.280600
vn 0.180900 -0.976000 -0.120800
vn 0.711300 -0.518000 -0.475000
vn 0.791600 -0.306700 -0.528600
vn 0.225500 -0.912500 0.341300
vn 0.080600 -0.989300 0.121900
vn 0.434900 -0.614500 0.658200
vn 0.495900 -0.437100 0.750300
vn -0.422100 -0.862500 0.278900
vn -0.182000 -0.975900 0.120200
vn -0.714000 -0.517300 0.471800
vn -0.794300 -0.305800 0.524900
vn -0.422100 -0.862500 -0.279000
vn -0.182000 -0.975900 -0.120300
vn -0.714000 -0.517300 -0.471800
vn -0.794300 -0.305800 -0.524900
vn 0.551300 0.000000 -0.834300
vn 0.831600 0.000000 0.555300
vn 1.000000 0.000000 0.000000
vn 0.831600 0.000000 -0.555300
vn 0.551300 0.000000 0.834300
vn -0.834300 0.000000 0.551300
vn -0.834300 0.000000 -0.551300
vn 0.434900 0.614500 -0.658200
vn 0.711300 0.518000 0.475000
vn 0.791500 0.306700 0.528600
vn 0.495800 0.437100 -0.750300
vn 0.225500 0.912500 -0.341300
vn 0.420300 0.862800 0.280700
vn 0.080600 0.989300 -0.121900
vn 0.180900 0.976000 0.120800
vn 0.456700 0.889600 0.000000
vn 0.819500 0.573000 0.000000
vn 0.136300 0.990700 0.000000
vn 0.102100 0.994800 0.000000
vn 0.711300 0.518000 -0.475000
vn 0.791600 0.306700 -0.528600
vn 0.420300 0.862900 -0.280600
vn 0.180900 0.976000 -0.120800
vn 0.434900 0.614500 0.658200
vn 0.495900 0.437100 0.750300
vn 0.225500 0.912500 0.341300
vn 0.080600 0.989300 0.121900
vn -0.714000 0.517300 0.471800
vn -0.794300 0.305800 0.524900
vn -0.422100 0.862500 0.278900
vn -0.182000 0.975900 0.120200
vn -0.714000 0.517300 -0.471800
vn -0.794300 0.305800 -0.524900
vn -0.422100 0.862500 -0.279000
vn -0.182000 0.975900 -0.120200
usemtl None
s off
f 7//1 2//1 1//1
f 7//1 3//1 2//1
f 6//1 3//1 7//1
f 6//1 4//1 3//1
f 5//1 4//1 6//1
f 9//2 14//2 8//2
f 10//2 14//2 9//2
f 10//2 13//2 14//2
f 11//2 13//2 10//2
f 11//2 12//2 13//2
s 1
f 16//3 20//4 19//5 15//6
f 17//7 21//8 20//4 16//3
f 18//9 22//10 21//8 17//7
f 20//4 24//11 23//12 19//5
f 21//8 25//13 24//11 20//4
f 22//10 26//14 25//13 21//8
f 24//11 28//15 27//16 23//12
f 25//13 29//17 28//15 24//11
f 26//14 30//18 29//17 25//13
f 28//15 32//19 31//20 27//16
f 29//17 33//21 32//19 28//15
f 30//18 34//22 33//21 29//17
f 32//19 36//23 35//24 31//20
f 33//21 37//25 36//23 32//19
f 34//22 38//26 37//25 33//21
f 36//23 40//27 39//28 35//24
f 37//25 41//29 40//27 36//23
f 38//26 42//30 41//29 37//25
f 40//27 16//3 15//6 39//28
f 41//29 17//7 16//3 40//27
f 42//30 18//9 17//7 41//29
f 44//31 46//32 45//32 43//31
f 46//32 48//33 47//33 45//32
f 48//33 50//34 49//34 47//33
f 50//34 52//35 51//35 49//34
f 52//35 54//36 53//36 51//35
f 54//36 56//37 55//37 53//36
f 56//37 44//31 43//31 55//37
f 58//38 62//39 61//40 57//41
f 59//42 63//43 62//39 58//38
f 60//44 64//45 63//43 59//42
f 62//39 66//46 65//47 61//40
f 63//43 67//48 66//46 62//39
f 64//45 68//49 67//48 63//43
f 66//46 70//50 69//51 65//47
f 67//48 71//52 70//50 66//46
f 68//49 72//53 71//52 67//48
f 70//50 74//54 73//55 69//51
f 71//52 75//56 74//54 70//50
f 72//53 76//57 75//56 71//52
f 74//54 78//58 77//59 73//55
f 75//56 79//60 78//58 74//54
f 76//57 80//61 79//60 75//56
f 78//58 82//62 81//63 77//59
f 79//60 83//64 82//62 78//58
f 80//61 84//65 83//64 79//60
f 82//62 58//38 57//41 81//63
f 83//64 59//42 58//38 82//62
f 84//65 60//44 59//42 83//64
