# Blender v2.76 (sub 0) OBJ File: ''
# www.blender.org
mtllib m.mtl
o Text_Untitled
v 0.819561 -0.049307 1.358017
v 0.708450 -0.049307 1.358017
v 0.708450 -0.049307 0.802461
v 1.264006 -0.049307 0.802461
v 1.264006 -0.049307 1.358017
v 1.152895 -0.049307 1.358017
v 1.152895 -0.049307 0.913573
v 1.041784 -0.049307 0.913573
v 1.041784 -0.049307 1.358017
v 0.930673 -0.049307 1.358017
v 0.930673 -0.049307 0.913573
v 0.819561 -0.049307 0.913573
v 0.819561 -0.137307 1.358017
v 0.708450 -0.137307 1.358017
v 0.708450 -0.137307 0.802461
v 1.264006 -0.137307 0.802461
v 1.264006 -0.137307 1.358017
v 1.152895 -0.137307 1.358017
v 1.152895 -0.137307 0.913573
v 1.041784 -0.137307 0.913573
v 1.041784 -0.137307 1.358017
v 0.930673 -0.137307 1.358017
v 0.930673 -0.137307 0.913573
v 0.819561 -0.137307 0.913573
v 0.819561 -0.137307 1.358017
v 0.821061 -0.136906 1.359517
v 0.822160 -0.135807 1.360615
v 0.822561 -0.134308 1.361017
v 0.708450 -0.137307 1.358017
v 0.706950 -0.136906 1.359517
v 0.705852 -0.135807 1.360615
v 0.705450 -0.134308 1.361017
v 0.708450 -0.137307 0.802461
v 0.706950 -0.136906 0.800961
v 0.705852 -0.135807 0.799863
v 0.705450 -0.134308 0.799461
v 1.264006 -0.137307 0.802461
v 1.265506 -0.136906 0.800961
v 1.266604 -0.135807 0.799863
v 1.267006 -0.134308 0.799461
v 1.264006 -0.137307 1.358017
v 1.265506 -0.136906 1.359517
v 1.266604 -0.135807 1.360615
v 1.267006 -0.134308 1.361017
v 1.152895 -0.137307 1.358017
v 1.151395 -0.136906 1.359517
v 1.150297 -0.135807 1.360615
v 1.149895 -0.134308 1.361017
v 1.152895 -0.137307 0.913573
v 1.151395 -0.136906 0.915073
v 1.150297 -0.135807 0.916171
v 1.149895 -0.134308 0.916573
v 1.041784 -0.137307 0.913573
v 1.043284 -0.136906 0.915073
v 1.044382 -0.135807 0.916171
v 1.044784 -0.134308 0.916573
v 1.041784 -0.137307 1.358017
v 1.043284 -0.136906 1.359517
v 1.044382 -0.135807 1.360615
v 1.044784 -0.134308 1.361017
v 0.930673 -0.137307 1.358017
v 0.929173 -0.136906 1.359517
v 0.928074 -0.135807 1.360615
v 0.927673 -0.134308 1.361017
v 0.930673 -0.137307 0.913573
v 0.929173 -0.136906 0.915073
v 0.928074 -0.135807 0.916171
v 0.927673 -0.134308 0.916573
v 0.819561 -0.137307 0.913573
v 0.821061 -0.136906 0.915073
v 0.822160 -0.135807 0.916171
v 0.822561 -0.134308 0.916573
v 0.822561 -0.134308 1.361017
v 0.822561 -0.052307 1.361017
v 0.705450 -0.134308 1.361017
v 0.705450 -0.052307 1.361017
v 0.705450 -0.134308 0.799461
v 0.705450 -0.052307 0.799461
v 1.267006 -0.134308 0.799461
v 1.267006 -0.052307 0.799461
v 1.267006 -0.134308 1.361017
v 1.267006 -0.052307 1.361017
v 1.149895 -0.134308 1.361017
v 1.149895 -0.052307 1.361017
v 1.149895 -0.134308 0.916573
v 1.149895 -0.052307 0.916573
v 1.044784 -0.134308 0.916573
v 1.044784 -0.052307 0.916573
v 1.044784 -0.134308 1.361017
v 1.044784 -0.052307 1.361017
v 0.927673 -0.134308 1.361017
v 0.927673 -0.052307 1.361017
v 0.927673 -0.134308 0.916573
v 0.927673 -0.052307 0.916573
v 0.822561 -0.134308 0.916573
v 0.822561 -0.052307 0.916573
v 0.822561 -0.052307 1.361017
v 0.822160 -0.050807 1.360615
v 0.821061 -0.049709 1.359517
v 0.819561 -0.049307 1.358017
v 0.705450 -0.052307 1.361017
v 0.705852 -0.050807 1.360615
v 0.706950 -0.049709 1.359517
v 0.708450 -0.049307 1.358017
v 0.705450 -0.052307 0.799461
v 0.705852 -0.050807 0.799863
v 0.706950 -0.049709 0.800961
v 0.708450 -0.049307 0.802461
v 1.267006 -0.052307 0.799461
v 1.266604 -0.050807 0.799863
v 1.265506 -0.049709 0.800961
v 1.264006 -0.049307 0.802461
v 1.267006 -0.052307 1.361017
v 1.266604 -0.050807 1.360615
v 1.265506 -0.049709 1.359517
v 1.264006 -0.049307 1.358017
v 1.149895 -0.052307 1.361017
v 1.150297 -0.050807 1.360615
v 1.151395 -0.049709 1.359517
v 1.152895 -0.049307 1.358017
v 1.149895 -0.052307 0.916573
v 1.150297 -0.050807 0.916171
v 1.151395 -0.049709 0.915073
v 1.152895 -0.049307 0.913573
v 1.044784 -0.052307 0.916573
v 1.044382 -0.050807 0.916171
v 1.043284 -0.049709 0.915073
v 1.041784 -0.049307 0.913573
v 1.044784 -0.052307 1.361017
v 1.044382 -0.050807 1.360615
v 1.043284 -0.049709 1.359517
v 1.041784 -0.049307 1.358017
v 0.927673 -0.052307 1.361017
v 0.928074 -0.050807 1.360615
v 0.929173 -0.049709 1.359517
v 0.930673 -0.049307 1.358017
v 0.927673 -0.052307 0.916573
v 0.928074 -0.050807 0.916171
v 0.929173 -0.049709 0.915073
v 0.930673 -0.049307 0.913573
v 0.822561 -0.052307 0.916573
v 0.822160 -0.050807 0.916171
v 0.821061 -0.049709 0.915073
v 0.819561 -0.049307 0.913573
vn 0.000000 1.000000 0.000000
vn 0.000000 0.000000 1.000000
vn 0.000000 -1.000000 0.000000
vn 0.333200 -0.882000 0.333200
vn -0.333200 -0.882000 0.333200
vn -0.131600 -0.982500 0.131600
vn 0.131600 -0.982500 0.131600
vn 0.588600 -0.554200 0.588500
vn -0.588500 -0.554200 0.588500
vn 0.661200 -0.354300 0.661200
vn -0.661200 -0.354400 0.661200
vn -0.333200 -0.882000 -0.333200
vn -0.131600 -0.982500 -0.131600
vn -0.588500 -0.554200 -0.588500
vn -0.661200 -0.354400 -0.661200
vn 0.333200 -0.882000 -0.333200
vn 0.131600 -0.982500 -0.131600
vn 0.588500 -0.554300 -0.588500
vn 0.661200 -0.354400 -0.661200
vn 0.588500 -0.554300 0.588500
vn 0.661200 -0.354400 0.661200
vn -0.208500 -0.955500 0.208500
vn -0.513500 -0.687500 0.513500
vn -0.661200 -0.354300 0.661200
vn 0.208500 -0.955500 0.208500
vn 0.513500 -0.687500 0.513500
vn 0.707100 0.000000 0.707100
vn -0.707100 0.000000 0.707100
vn -0.707100 0.000000 -0.707100
vn 0.707100 0.000000 -0.707100
vn 0.588600 0.554200 0.588500
vn -0.588500 0.554200 0.588500
vn -0.661200 0.354400 0.661200
vn 0.661200 0.354300 0.661200
vn 0.333200 0.882000 0.333200
vn -0.333200 0.882000 0.333200
vn 0.131600 0.982500 0.131600
vn -0.131600 0.982500 0.131600
vn -0.588500 0.554200 -0.588500
vn -0.661200 0.354400 -0.661200
vn -0.333200 0.882000 -0.333200
vn -0.131600 0.982500 -0.131600
vn 0.588500 0.554300 -0.588500
vn 0.661200 0.354400 -0.661200
vn 0.333200 0.882000 -0.333200
vn 0.131600 0.982500 -0.131600
vn 0.588500 0.554300 0.588500
vn 0.661200 0.354400 0.661200
vn -0.513500 0.687500 0.513500
vn -0.661200 0.354300 0.661200
vn -0.208500 0.955500 0.208500
vn 0.513500 0.687500 0.513500
vn 0.208500 0.955500 0.208500
usemtl None
s off
f 2//1 12//1 3//1
f 12//1 4//1 3//1
f 12//1 8//1 4//1
f 8//1 7//1 4//1
f 7//1 5//1 4//1
f 2//1 1//1 12//1
f 11//2 8//2 12//2
f 10//1 8//1 11//1
f 10//1 9//1 8//1
f 6//1 5//1 7//1
f 24//3 14//3 15//3
f 16//3 24//3 15//3
f 20//3 24//3 16//3
f 19//3 20//3 16//3
f 17//3 19//3 16//3
f 13//3 14//3 24//3
f 20//2 23//2 24//2
f 20//3 22//3 23//3
f 21//3 22//3 20//3
f 17//3 18//3 19//3
s 1
f 26//4 30//5 29//6 25//7
f 27//8 31//9 30//5 26//4
f 28//10 32//11 31//9 27//8
f 30//5 34//12 33//13 29//6
f 31//9 35//14 34//12 30//5
f 32//11 36//15 35//14 31//9
f 34//12 38//16 37//17 33//13
f 35//14 39//18 38//16 34//12
f 36//15 40//19 39//18 35//14
f 38//16 42//4 41//7 37//17
f 39//18 43//20 42//4 38//16
f 40//19 44//21 43//20 39//18
f 42//4 46//5 45//6 41//7
f 43//20 47//9 46//5 42//4
f 44//21 48//11 47//9 43//20
f 46//5 50//22 49//6 45//6
f 47//9 51//23 50//22 46//5
f 48//11 52//24 51//23 47//9
f 50//22 54//25 53//7 49//6
f 51//23 55//26 54//25 50//22
f 52//24 56//10 55//26 51//23
f 54//25 58//4 57//7 53//7
f 55//26 59//8 58//4 54//25
f 56//10 60//10 59//8 55//26
f 58//4 62//5 61//6 57//7
f 59//8 63//9 62//5 58//4
f 60//10 64//11 63//9 59//8
f 62//5 66//22 65//6 61//6
f 63//9 67//23 66//22 62//5
f 64//11 68//11 67//23 63//9
f 66//22 70//25 69//7 65//6
f 67//23 71//26 70//25 66//22
f 68//11 72//10 71//26 67//23
f 70//25 26//4 25//7 69//7
f 71//26 27//8 26//4 70//25
f 72//10 28//10 27//8 71//26
f 74//27 76//28 75//28 73//27
f 76//28 78//29 77//29 75//28
f 78//29 80//30 79//30 77//29
f 80//30 82//27 81//27 79//30
f 82//27 84//28 83//28 81//27
f 84//28 86//28 85//28 83//28
f 86//28 88//27 87//27 85//28
f 88//27 90//27 89//27 87//27
f 90//27 92//28 91//28 89//27
f 92//28 94//28 93//28 91//28
f 94//28 96//27 95//27 93//28
f 96//27 74//27 73//27 95//27
f 98//31 102//32 101//33 97//34
f 99//35 103//36 102//32 98//31
f 100//37 104//38 103//36 99//35
f 102//32 106//39 105//40 101//33
f 103//36 107//41 106//39 102//32
f 104//38 108//42 107//41 103//36
f 106//39 110//43 109//44 105//40
f 107//41 111//45 110//43 106//39
f 108//42 112//46 111//45 107//41
f 110//43 114//47 113//48 109//44
f 111//45 115//35 114//47 110//43
f 112//46 116//37 115//35 111//45
f 114//47 118//32 117//33 113//48
f 115//35 119//36 118//32 114//47
f 116//37 120//38 119//36 115//35
f 118//32 122//49 121//50 117//33
f 119//36 123//51 122//49 118//32
f 120//38 124//38 123//51 119//36
f 122//49 126//52 125//34 121//50
f 123//51 127//53 126//52 122//49
f 124//38 128//37 127//53 123//51
f 126//52 130//31 129//34 125//34
f 127//53 131//35 130//31 126//52
f 128//37 132//37 131//35 127//53
f 130//31 134//32 133//33 129//34
f 131//35 135//36 134//32 130//31
f 132//37 136//38 135//36 131//35
f 134//32 138//49 137//33 133//33
f 135//36 139//51 138//49 134//32
f 136//38 140//38 139//51 135//36
f 138//49 142//52 141//34 137//33
f 139//51 143//53 142//52 138//49
f 140//38 144//37 143//53 139//51
f 142//52 98//31 97//34 141//34
f 143//53 99//35 98//31 142//52
f 144//37 100//37 99//35 143//53
