# Blender v2.76 (sub 0) OBJ File: ''
# www.blender.org
mtllib n.mtl
o Text_Untitled
v 0.819561 -0.049307 1.358017
v 0.708450 -0.049307 1.358017
v 0.708450 -0.049307 0.802461
v 1.152895 -0.049307 0.802461
v 1.152895 -0.049307 1.358017
v 1.041784 -0.049307 1.358017
v 1.041784 -0.049307 0.913573
v 0.819561 -0.049307 0.913573
v 0.819561 -0.137307 1.358017
v 0.708450 -0.137307 1.358017
v 0.708450 -0.137307 0.802461
v 1.152895 -0.137307 0.802461
v 1.152895 -0.137307 1.358017
v 1.041784 -0.137307 1.358017
v 1.041784 -0.137307 0.913573
v 0.819561 -0.137307 0.913573
v 0.819561 -0.137307 1.358017
v 0.821061 -0.136906 1.359517
v 0.822160 -0.135807 1.360615
v 0.822561 -0.134308 1.361017
v 0.708450 -0.137307 1.358017
v 0.706950 -0.136906 1.359517
v 0.705852 -0.135807 1.360615
v 0.705450 -0.134308 1.361017
v 0.708450 -0.137307 0.802461
v 0.706950 -0.136906 0.800961
v 0.705852 -0.135807 0.799863
v 0.705450 -0.134308 0.799461
v 1.152895 -0.137307 0.802461
v 1.154395 -0.136906 0.800961
v 1.155493 -0.135807 0.799863
v 1.155895 -0.134308 0.799461
v 1.152895 -0.137307 1.358017
v 1.154395 -0.136906 1.359517
v 1.155493 -0.135807 1.360615
v 1.155895 -0.134308 1.361017
v 1.041784 -0.137307 1.358017
v 1.040284 -0.136906 1.359517
v 1.039186 -0.135807 1.360615
v 1.038784 -0.134308 1.361017
v 1.041784 -0.137307 0.913573
v 1.040284 -0.136906 0.915073
v 1.039186 -0.135807 0.916171
v 1.038784 -0.134308 0.916573
v 0.819561 -0.137307 0.913573
v 0.821061 -0.136906 0.915073
v 0.822160 -0.135807 0.916171
v 0.822561 -0.134308 0.916573
v 0.822561 -0.134308 1.361017
v 0.822561 -0.052307 1.361017
v 0.705450 -0.134308 1.361017
v 0.705450 -0.052307 1.361017
v 0.705450 -0.134308 0.799461
v 0.705450 -0.052307 0.799461
v 1.155895 -0.134308 0.799461
v 1.155895 -0.052307 0.799461
v 1.155895 -0.134308 1.361017
v 1.155895 -0.052307 1.361017
v 1.038784 -0.134308 1.361017
v 1.038784 -0.052307 1.361017
v 1.038784 -0.134308 0.916573
v 1.038784 -0.052307 0.916573
v 0.822561 -0.134308 0.916573
v 0.822561 -0.052307 0.916573
v 0.822561 -0.052307 1.361017
v 0.822160 -0.050807 1.360615
v 0.821061 -0.049709 1.359517
v 0.819561 -0.049307 1.358017
v 0.705450 -0.052307 1.361017
v 0.705852 -0.050807 1.360615
v 0.706950 -0.049709 1.359517
v 0.708450 -0.049307 1.358017
v 0.705450 -0.052307 0.799461
v 0.705852 -0.050807 0.799863
v 0.706950 -0.049709 0.800961
v 0.708450 -0.049307 0.802461
v 1.155895 -0.052307 0.799461
v 1.155493 -0.050807 0.799863
v 1.154395 -0.049709 0.800961
v 1.152895 -0.049307 0.802461
v 1.155895 -0.052307 1.361017
v 1.155493 -0.050807 1.360615
v 1.154395 -0.049709 1.359517
v 1.152895 -0.049307 1.358017
v 1.038784 -0.052307 1.361017
v 1.039186 -0.050807 1.360615
v 1.040284 -0.049709 1.359517
v 1.041784 -0.049307 1.358017
v 1.038784 -0.052307 0.916573
v 1.039186 -0.050807 0.916171
v 1.040284 -0.049709 0.915073
v 1.041784 -0.049307 0.913573
v 0.822561 -0.052307 0.916573
v 0.822160 -0.050807 0.916171
v 0.821061 -0.049709 0.915073
v 0.819561 -0.049307 0.913573
vn 0.000000 1.000000 0.000000
vn 0.000000 -1.000000 0.000000
vn 0.333200 -0.882000 0.333200
vn -0.333200 -0.882000 0.333200
vn -0.131600 -0.982500 0.131600
vn 0.131600 -0.982500 0.131600
vn 0.588600 -0.554200 0.588500
vn -0.588500 -0.554200 0.588500
vn 0.661200 -0.354300 0.661200
vn -0.661200 -0.354400 0.661200
vn -0.333200 -0.882000 -0.333200
vn -0.131600 -0.982500 -0.131600
vn -0.588500 -0.554200 -0.588500
vn -0.661200 -0.354400 -0.661200
vn 0.333100 -0.882000 -0.333200
vn 0.131600 -0.982500 -0.131600
vn 0.588500 -0.554200 -0.588500
vn 0.661200 -0.354400 -0.661200
vn 0.333100 -0.882000 0.333200
vn 0.588500 -0.554200 0.588500
vn 0.661200 -0.354400 0.661200
vn -0.333100 -0.882000 0.333200
vn -0.588600 -0.554200 0.588500
vn -0.661200 -0.354300 0.661200
vn -0.208500 -0.955500 0.208500
vn -0.513400 -0.687500 0.513500
vn 0.208500 -0.955500 0.208500
vn 0.513500 -0.687500 0.513500
vn 0.707100 0.000000 0.707100
vn -0.707100 0.000000 0.707100
vn -0.707100 0.000000 -0.707100
vn 0.707100 0.000000 -0.707100
vn 0.588600 0.554200 0.588500
vn -0.588500 0.554200 0.588500
vn -0.661200 0.354400 0.661200
vn 0.661200 0.354300 0.661200
vn 0.333200 0.882000 0.333200
vn -0.333200 0.882000 0.333200
vn 0.131600 0.982500 0.131600
vn -0.131600 0.982500 0.131600
vn -0.588500 0.554200 -0.588500
vn -0.661200 0.354400 -0.661200
vn -0.333200 0.882000 -0.333200
vn -0.131600 0.982500 -0.131600
vn 0.588500 0.554200 -0.588500
vn 0.661200 0.354400 -0.661200
vn 0.333100 0.882000 -0.333200
vn 0.131600 0.982500 -0.131600
vn 0.588500 0.554200 0.588500
vn 0.661200 0.354400 0.661200
vn 0.333100 0.882000 0.333200
vn -0.588600 0.554200 0.588500
vn -0.661200 0.354300 0.661200
vn -0.333100 0.882000 0.333200
vn -0.513400 0.687500 0.513500
vn -0.208500 0.955500 0.208500
vn 0.513500 0.687500 0.513500
vn 0.208500 0.955500 0.208500
usemtl None
s off
f 2//1 8//1 3//1
f 8//1 4//1 3//1
f 8//1 7//1 4//1
f 7//1 5//1 4//1
f 2//1 1//1 8//1
f 6//1 5//1 7//1
f 16//2 10//2 11//2
f 12//2 16//2 11//2
f 15//2 16//2 12//2
f 13//2 15//2 12//2
f 9//2 10//2 16//2
f 13//2 14//2 15//2
s 1
f 18//3 22//4 21//5 17//6
f 19//7 23//8 22//4 18//3
f 20//9 24//10 23//8 19//7
f 22//4 26//11 25//12 21//5
f 23//8 27//13 26//11 22//4
f 24//10 28//14 27//13 23//8
f 26//11 30//15 29//16 25//12
f 27//13 31//17 30//15 26//11
f 28//14 32//18 31//17 27//13
f 30//15 34//19 33//6 29//16
f 31//17 35//20 34//19 30//15
f 32//18 36//21 35//20 31//17
f 34//19 38//22 37//5 33//6
f 35//20 39//23 38//22 34//19
f 36//21 40//24 39//23 35//20
f 38//22 42//25 41//5 37//5
f 39//23 43//26 42//25 38//22
f 40//24 44//24 43//26 39//23
f 42//25 46//27 45//6 41//5
f 43//26 47//28 46//27 42//25
f 44//24 48//9 47//28 43//26
f 46//27 18//3 17//6 45//6
f 47//28 19//7 18//3 46//27
f 48//9 20//9 19//7 47//28
f 50//29 52//30 51//30 49//29
f 52//30 54//31 53//31 51//30
f 54//31 56//32 55//32 53//31
f 56//32 58//29 57//29 55//32
f 58//29 60//30 59//30 57//29
f 60//30 62//30 61//30 59//30
f 62//30 64//29 63//29 61//30
f 64//29 50//29 49//29 63//29
f 66//33 70//34 69//35 65//36
f 67//37 71//38 70//34 66//33
f 68//39 72//40 71//38 67//37
f 70//34 74//41 73//42 69//35
f 71//38 75//43 74//41 70//34
f 72//40 76//44 75//43 71//38
f 74//41 78//45 77//46 73//42
f 75//43 79//47 78//45 74//41
f 76//44 80//48 79//47 75//43
f 78//45 82//49 81//50 77//46
f 79//47 83//51 82//49 78//45
f 80//48 84//39 83//51 79//47
f 82//49 86//52 85//53 81//50
f 83//51 87//54 86//52 82//49
f 84//39 88//40 87//54 83//51
f 86//52 90//55 89//53 85//53
f 87//54 91//56 90//55 86//52
f 88//40 92//40 91//56 87//54
f 90//55 94//57 93//36 89//53
f 91//56 95//58 94//57 90//55
f 92//40 96//39 95//58 91//56
f 94//57 66//33 65//36 93//36
f 95//58 67//37 66//33 94//57
f 96//39 68//39 67//37 95//58
