# Blender v2.76 (sub 0) OBJ File: ''
# www.blender.org
mtllib o.mtl
o Text_Untitled
v 0.819561 -0.049307 1.246906
v 1.041784 -0.049307 1.246906
v 1.041784 -0.049307 0.913573
v 0.819561 -0.049307 0.913573
v 1.152895 -0.049307 1.358017
v 0.708450 -0.049307 1.358017
v 0.708450 -0.049307 0.802461
v 1.152895 -0.049307 0.802461
v 0.819561 -0.137307 1.246906
v 1.041784 -0.137307 1.246906
v 1.041784 -0.137307 0.913573
v 0.819561 -0.137307 0.913573
v 1.152895 -0.137307 1.358017
v 0.708450 -0.137307 1.358017
v 0.708450 -0.137307 0.802461
v 1.152895 -0.137307 0.802461
v 0.819561 -0.137307 1.246906
v 0.821061 -0.136906 1.245406
v 0.822160 -0.135807 1.244308
v 0.822561 -0.134308 1.243906
v 1.041784 -0.137307 1.246906
v 1.040284 -0.136906 1.245406
v 1.039186 -0.135807 1.244308
v 1.038784 -0.134308 1.243906
v 1.041784 -0.137307 0.913573
v 1.040284 -0.136906 0.915073
v 1.039186 -0.135807 0.916171
v 1.038784 -0.134308 0.916573
v 0.819561 -0.137307 0.913573
v 0.821061 -0.136906 0.915073
v 0.822160 -0.135807 0.916171
v 0.822561 -0.134308 0.916573
v 0.822561 -0.134308 1.243906
v 0.822561 -0.052307 1.243906
v 1.038784 -0.134308 1.243906
v 1.038784 -0.052307 1.243906
v 1.038784 -0.134308 0.916573
v 1.038784 -0.052307 0.916573
v 0.822561 -0.134308 0.916573
v 0.822561 -0.052307 0.916573
v 0.822561 -0.052307 1.243906
v 0.822160 -0.050807 1.244308
v 0.821061 -0.049709 1.245406
v 0.819561 -0.049307 1.246906
v 1.038784 -0.052307 1.243906
v 1.039186 -0.050807 1.244308
v 1.040284 -0.049709 1.245406
v 1.041784 -0.049307 1.246906
v 1.038784 -0.052307 0.916573
v 1.039186 -0.050807 0.916171
v 1.040284 -0.049709 0.915073
v 1.041784 -0.049307 0.913573
v 0.822561 -0.052307 0.916573
v 0.822160 -0.050807 0.916171
v 0.821061 -0.049709 0.915073
v 0.819561 -0.049307 0.913573
v 1.152895 -0.137307 1.358017
v 1.154395 -0.136906 1.359517
v 1.155493 -0.135807 1.360615
v 1.155895 -0.134308 1.361017
v 0.708450 -0.137307 1.358017
v 0.706950 -0.136906 1.359517
v 0.705852 -0.135807 1.360615
v 0.705450 -0.134308 1.361017
v 0.708450 -0.137307 0.802461
v 0.706950 -0.136906 0.800961
v 0.705852 -0.135807 0.799863
v 0.705450 -0.134308 0.799461
v 1.152895 -0.137307 0.802461
v 1.154395 -0.136906 0.800961
v 1.155493 -0.135807 0.799863
v 1.155895 -0.134308 0.799461
v 1.155895 -0.134308 1.361017
v 1.155895 -0.052307 1.361017
v 0.705450 -0.134308 1.361017
v 0.705450 -0.052307 1.361017
v 0.705450 -0.134308 0.799461
v 0.705450 -0.052307 0.799461
v 1.155895 -0.134308 0.799461
v 1.155895 -0.052307 0.799461
v 1.155895 -0.052307 1.361017
v 1.155493 -0.050807 1.360615
v 1.154395 -0.049709 1.359517
v 1.152895 -0.049307 1.358017
v 0.705450 -0.052307 1.361017
v 0.705852 -0.050807 1.360615
v 0.706950 -0.049709 1.359517
v 0.708450 -0.049307 1.358017
v 0.705450 -0.052307 0.799461
v 0.705852 -0.050807 0.799863
v 0.706950 -0.049709 0.800961
v 0.708450 -0.049307 0.802461
v 1.155895 -0.052307 0.799461
v 1.155493 -0.050807 0.799863
v 1.154395 -0.049709 0.800961
v 1.152895 -0.049307 0.802461
vn 0.000000 1.000000 0.000000
vn 0.000000 -1.000000 0.000000
vn 0.208500 -0.955500 -0.208500
vn -0.208500 -0.955500 -0.208500
vn -0.131600 -0.982500 -0.131600
vn 0.131600 -0.982500 -0.131600
vn 0.513500 -0.687500 -0.513400
vn -0.513500 -0.687500 -0.513500
vn 0.661200 -0.354300 -0.661200
vn -0.661200 -0.354200 -0.661200
vn -0.208500 -0.955500 0.208500
vn -0.131600 -0.982500 0.131600
vn -0.513400 -0.687500 0.513500
vn -0.661200 -0.354300 0.661200
vn 0.208500 -0.955500 0.208500
vn 0.131600 -0.982500 0.131600
vn 0.513500 -0.687500 0.513500
vn 0.661200 -0.354300 0.661200
vn 0.707100 0.000000 -0.707100
vn -0.707100 0.000000 -0.707100
vn -0.707100 0.000000 0.707100
vn 0.707100 0.000000 0.707100
vn 0.513500 0.687500 -0.513400
vn -0.513500 0.687500 -0.513500
vn -0.661200 0.354200 -0.661200
vn 0.661200 0.354300 -0.661200
vn 0.208500 0.955500 -0.208500
vn -0.208500 0.955500 -0.208500
vn 0.131600 0.982500 -0.131600
vn -0.131600 0.982500 -0.131600
vn -0.513400 0.687500 0.513500
vn -0.661200 0.354300 0.661200
vn -0.208500 0.955500 0.208500
vn -0.131600 0.982500 0.131600
vn 0.513500 0.687500 0.513500
vn 0.661200 0.354300 0.661200
vn 0.208500 0.955500 0.208500
vn 0.131600 0.982500 0.131600
vn 0.333100 -0.882000 0.333200
vn -0.333200 -0.882000 0.333200
vn 0.588500 -0.554200 0.588500
vn -0.588500 -0.554200 0.588500
vn 0.661200 -0.354400 0.661200
vn -0.661200 -0.354400 0.661200
vn -0.333200 -0.882000 -0.333200
vn -0.588500 -0.554200 -0.588500
vn -0.661200 -0.354400 -0.661200
vn 0.333100 -0.882000 -0.333200
vn 0.588500 -0.554200 -0.588500
vn 0.661200 -0.354400 -0.661200
vn 0.588500 0.554200 0.588500
vn -0.588500 0.554200 0.588500
vn -0.661200 0.354400 0.661200
vn 0.661200 0.354400 0.661200
vn 0.333100 0.882000 0.333200
vn -0.333200 0.882000 0.333200
vn -0.588500 0.554200 -0.588500
vn -0.661200 0.354400 -0.661200
vn -0.333200 0.882000 -0.333200
vn 0.588500 0.554200 -0.588500
vn 0.661200 0.354400 -0.661200
vn 0.333100 0.882000 -0.333200
usemtl None
s off
f 6//1 4//1 7//1
f 4//1 8//1 7//1
f 4//1 3//1 8//1
f 3//1 5//1 8//1
f 6//1 1//1 4//1
f 2//1 5//1 3//1
f 6//1 2//1 1//1
f 6//1 5//1 2//1
f 12//2 14//2 15//2
f 16//2 12//2 15//2
f 11//2 12//2 16//2
f 13//2 11//2 16//2
f 9//2 14//2 12//2
f 13//2 10//2 11//2
f 10//2 14//2 9//2
f 13//2 14//2 10//2
s 1
f 18//3 22//4 21//5 17//6
f 19//7 23//8 22//4 18//3
f 20//9 24//10 23//8 19//7
f 22//4 26//11 25//12 21//5
f 23//8 27//13 26//11 22//4
f 24//10 28//14 27//13 23//8
f 26//11 30//15 29//16 25//12
f 27//13 31//17 30//15 26//11
f 28//14 32//18 31//17 27//13
f 30//15 18//3 17//6 29//16
f 31//17 19//7 18//3 30//15
f 32//18 20//9 19//7 31//17
f 34//19 36//20 35//20 33//19
f 36//20 38//21 37//21 35//20
f 38//21 40//22 39//22 37//21
f 40//22 34//19 33//19 39//22
f 42//23 46//24 45//25 41//26
f 43//27 47//28 46//24 42//23
f 44//29 48//30 47//28 43//27
f 46//24 50//31 49//32 45//25
f 47//28 51//33 50//31 46//24
f 48//30 52//34 51//33 47//28
f 50//31 54//35 53//36 49//32
f 51//33 55//37 54//35 50//31
f 52//34 56//38 55//37 51//33
f 54//35 42//23 41//26 53//36
f 55//37 43//27 42//23 54//35
f 56//38 44//29 43//27 55//37
f 58//39 62//40 61//12 57//16
f 59//41 63//42 62//40 58//39
f 60//43 64//44 63//42 59//41
f 62//40 66//45 65//5 61//12
f 63//42 67//46 66//45 62//40
f 64//44 68//47 67//46 63//42
f 66//45 70//48 69//6 65//5
f 67//46 71//49 70//48 66//45
f 68//47 72//50 71//49 67//46
f 70//48 58//39 57//16 69//6
f 71//49 59//41 58//39 70//48
f 72//50 60//43 59//41 71//49
f 74//22 76//21 75//21 73//22
f 76//21 78//20 77//20 75//21
f 78//20 80//19 79//19 77//20
f 80//19 74//22 73//22 79//19
f 82//51 86//52 85//53 81//54
f 83//55 87//56 86//52 82//51
f 84//38 88//34 87//56 83//55
f 86//52 90//57 89//58 85//53
f 87//56 91//59 90//57 86//52
f 88//34 92//30 91//59 87//56
f 90//57 94//60 93//61 89//58
f 91//59 95//62 94//60 90//57
f 92//30 96//29 95//62 91//59
f 94//60 82//51 81//54 93//61
f 95//62 83//55 82//51 94//60
f 96//29 84//38 83//55 95//62
