# Blender v2.76 (sub 0) OBJ File: ''
# www.blender.org
mtllib p.mtl
o Text_Untitled
v 0.819561 -0.049307 1.024684
v 1.041784 -0.049307 1.024684
v 1.041784 -0.049307 0.913573
v 0.819561 -0.049307 0.913573
v 0.819561 -0.049307 1.358017
v 0.708450 -0.049307 1.358017
v 0.708450 -0.049307 0.802461
v 1.152895 -0.049307 0.802461
v 1.152895 -0.049307 1.135795
v 0.819561 -0.049307 1.135795
v 0.819561 -0.137307 1.024684
v 1.041784 -0.137307 1.024684
v 1.041784 -0.137307 0.913573
v 0.819561 -0.137307 0.913573
v 0.819561 -0.137307 1.358017
v 0.708450 -0.137307 1.358017
v 0.708450 -0.137307 0.802461
v 1.152895 -0.137307 0.802461
v 1.152895 -0.137307 1.135795
v 0.819561 -0.137307 1.135795
v 0.819561 -0.137307 1.024684
v 0.821061 -0.136906 1.023184
v 0.822160 -0.135807 1.022086
v 0.822561 -0.134308 1.021684
v 1.041784 -0.137307 1.024684
v 1.040284 -0.136906 1.023184
v 1.039186 -0.135807 1.022086
v 1.038784 -0.134308 1.021684
v 1.041784 -0.137307 0.913573
v 1.040284 -0.136906 0.915073
v 1.039186 -0.135807 0.916171
v 1.038784 -0.134308 0.916573
v 0.819561 -0.137307 0.913573
v 0.821061 -0.136906 0.915073
v 0.822160 -0.135807 0.916171
v 0.822561 -0.134308 0.916573
v 0.822561 -0.134308 1.021684
v 0.822561 -0.052307 1.021684
v 1.038784 -0.134308 1.021684
v 1.038784 -0.052307 1.021684
v 1.038784 -0.134308 0.916573
v 1.038784 -0.052307 0.916573
v 0.822561 -0.134308 0.916573
v 0.822561 -0.052307 0.916573
v 0.822561 -0.052307 1.021684
v 0.822160 -0.050807 1.022086
v 0.821061 -0.049709 1.023184
v 0.819561 -0.049307 1.024684
v 1.038784 -0.052307 1.021684
v 1.039186 -0.050807 1.022086
v 1.040284 -0.049709 1.023184
v 1.041784 -0.049307 1.024684
v 1.038784 -0.052307 0.916573
v 1.039186 -0.050807 0.916171
v 1.040284 -0.049709 0.915073
v 1.041784 -0.049307 0.913573
v 0.822561 -0.052307 0.916573
v 0.822160 -0.050807 0.916171
v 0.821061 -0.049709 0.915073
v 0.819561 -0.049307 0.913573
v 0.819561 -0.137307 1.358017
v 0.821061 -0.136906 1.359517
v 0.822160 -0.135807 1.360615
v 0.822561 -0.134308 1.361017
v 0.708450 -0.137307 1.358017
v 0.706950 -0.136906 1.359517
v 0.705852 -0.135807 1.360615
v 0.705450 -0.134308 1.361017
v 0.708450 -0.137307 0.802461
v 0.706950 -0.136906 0.800961
v 0.705852 -0.135807 0.799863
v 0.705450 -0.134308 0.799461
v 1.152895 -0.137307 0.802461
v 1.154395 -0.136906 0.800961
v 1.155493 -0.135807 0.799863
v 1.155895 -0.134308 0.799461
v 1.152895 -0.137307 1.135795
v 1.154395 -0.136906 1.137295
v 1.155493 -0.135807 1.138393
v 1.155895 -0.134308 1.138795
v 0.819561 -0.137307 1.135795
v 0.821061 -0.136906 1.137295
v 0.822160 -0.135807 1.138393
v 0.822561 -0.134308 1.138795
v 0.822561 -0.134308 1.361017
v 0.822561 -0.052307 1.361017
v 0.705450 -0.134308 1.361017
v 0.705450 -0.052307 1.361017
v 0.705450 -0.134308 0.799461
v 0.705450 -0.052307 0.799461
v 1.155895 -0.134308 0.799461
v 1.155895 -0.052307 0.799461
v 1.155895 -0.134308 1.138795
v 1.155895 -0.052307 1.138795
v 0.822561 -0.134308 1.138795
v 0.822561 -0.052307 1.138795
v 0.822561 -0.052307 1.361017
v 0.822160 -0.050807 1.360615
v 0.821061 -0.049709 1.359517
v 0.819561 -0.049307 1.358017
v 0.705450 -0.052307 1.361017
v 0.705852 -0.050807 1.360615
v 0.706950 -0.049709 1.359517
v 0.708450 -0.049307 1.358017
v 0.705450 -0.052307 0.799461
v 0.705852 -0.050807 0.799863
v 0.706950 -0.049709 0.800961
v 0.708450 -0.049307 0.802461
v 1.155895 -0.052307 0.799461
v 1.155493 -0.050807 0.799863
v 1.154395 -0.049709 0.800961
v 1.152895 -0.049307 0.802461
v 1.155895 -0.052307 1.138795
v 1.155493 -0.050807 1.138393
v 1.154395 -0.049709 1.137295
v 1.152895 -0.049307 1.135795
v 0.822561 -0.052307 1.138795
v 0.822160 -0.050807 1.138393
v 0.821061 -0.049709 1.137295
v 0.819561 -0.049307 1.135795
vn 0.000000 1.000000 0.000000
vn 0.000000 -1.000000 0.000000
vn 0.208500 -0.955500 -0.208500
vn -0.208500 -0.955500 -0.208500
vn -0.131600 -0.982500 -0.131600
vn 0.131600 -0.982500 -0.131600
vn 0.513500 -0.687500 -0.513500
vn -0.513500 -0.687500 -0.513500
vn 0.661200 -0.354300 -0.661200
vn -0.661200 -0.354300 -0.661200
vn -0.208500 -0.955500 0.208500
vn -0.131600 -0.982500 0.131600
vn -0.513400 -0.687500 0.513500
vn -0.661200 -0.354300 0.661200
vn 0.208500 -0.955500 0.208500
vn 0.131600 -0.982500 0.131600
vn 0.513400 -0.687500 0.513500
vn 0.661200 -0.354300 0.661200
vn 0.707100 0.000000 -0.707100
vn -0.707100 0.000000 -0.707100
vn -0.707100 0.000000 0.707100
vn 0.707100 0.000000 0.707100
vn 0.513500 0.687500 -0.513500
vn -0.513500 0.687500 -0.513500
vn -0.661200 0.354300 -0.661200
vn 0.661200 0.354300 -0.661200
vn 0.208500 0.955500 -0.208500
vn -0.208500 0.955500 -0.208500
vn 0.131600 0.982500 -0.131600
vn -0.131600 0.982500 -0.131600
vn -0.513400 0.687500 0.513500
vn -0.661200 0.354300 0.661200
vn -0.208500 0.955500 0.208500
vn -0.131600 0.982500 0.131600
vn 0.513400 0.687500 0.513500
vn 0.661200 0.354300 0.661200
vn 0.208500 0.955500 0.208500
vn 0.131600 0.982500 0.131600
vn 0.333200 -0.882000 0.333200
vn -0.333200 -0.882000 0.333200
vn 0.588500 -0.554200 0.588500
vn -0.588500 -0.554200 0.588500
vn 0.661200 -0.354400 0.661200
vn -0.661200 -0.354400 0.661200
vn -0.333200 -0.882000 -0.333200
vn -0.588500 -0.554200 -0.588500
vn -0.661200 -0.354400 -0.661200
vn 0.333200 -0.882000 -0.333200
vn 0.588500 -0.554200 -0.588500
vn 0.661200 -0.354400 -0.661200
vn 0.588500 0.554200 0.588500
vn -0.588500 0.554200 0.588500
vn -0.661200 0.354400 0.661200
vn 0.661200 0.354400 0.661200
vn 0.333200 0.882000 0.333200
vn -0.333200 0.882000 0.333200
vn -0.588500 0.554200 -0.588500
vn -0.661200 0.354400 -0.661200
vn -0.333200 0.882000 -0.333200
vn 0.588500 0.554200 -0.588500
vn 0.661200 0.354400 -0.661200
vn 0.333200 0.882000 -0.333200
usemtl None
s off
f 6//1 4//1 7//1
f 4//1 8//1 7//1
f 4//1 3//1 8//1
f 3//1 9//1 8//1
f 6//1 1//1 4//1
f 2//1 9//1 3//1
f 6//1 10//1 1//1
f 10//1 2//1 1//1
f 10//1 9//1 2//1
f 6//1 5//1 10//1
f 14//2 16//2 17//2
f 18//2 14//2 17//2
f 13//2 14//2 18//2
f 19//2 13//2 18//2
f 11//2 16//2 14//2
f 19//2 12//2 13//2
f 20//2 16//2 11//2
f 12//2 20//2 11//2
f 19//2 20//2 12//2
f 15//2 16//2 20//2
s 1
f 22//3 26//4 25//5 21//6
f 23//7 27//8 26//4 22//3
f 24//9 28//10 27//8 23//7
f 26//4 30//11 29//12 25//5
f 27//8 31//13 30//11 26//4
f 28//10 32//14 31//13 27//8
f 30//11 34//15 33//16 29//12
f 31//13 35//17 34//15 30//11
f 32//14 36//18 35//17 31//13
f 34//15 22//3 21//6 33//16
f 35//17 23//7 22//3 34//15
f 36//18 24//9 23//7 35//17
f 38//19 40//20 39//20 37//19
f 40//20 42//21 41//21 39//20
f 42//21 44//22 43//22 41//21
f 44//22 38//19 37//19 43//22
f 46//23 50//24 49//25 45//26
f 47//27 51//28 50//24 46//23
f 48//29 52//30 51//28 47//27
f 50//24 54//31 53//32 49//25
f 51//28 55//33 54//31 50//24
f 52//30 56//34 55//33 51//28
f 54//31 58//35 57//36 53//32
f 55//33 59//37 58//35 54//31
f 56//34 60//38 59//37 55//33
f 58//35 46//23 45//26 57//36
f 59//37 47//27 46//23 58//35
f 60//38 48//29 47//27 59//37
f 62//39 66//40 65//12 61//16
f 63//41 67//42 66//40 62//39
f 64//43 68//44 67//42 63//41
f 66//40 70//45 69//5 65//12
f 67//42 71//46 70//45 66//40
f 68//44 72//47 71//46 67//42
f 70//45 74//48 73//6 69//5
f 71//46 75//49 74//48 70//45
f 72//47 76//50 75//49 71//46
f 74//48 78//39 77//16 73//6
f 75//49 79//41 78//39 74//48
f 76//50 80//43 79//41 75//49
f 78//39 82//15 81//16 77//16
f 79//41 83//17 82//15 78//39
f 80//43 84//43 83//17 79//41
f 82//15 62//39 61//16 81//16
f 83//17 63//41 62//39 82//15
f 84//43 64//43 63//41 83//17
f 86//22 88//21 87//21 85//22
f 88//21 90//20 89//20 87//21
f 90//20 92//19 91//19 89//20
f 92//19 94//22 93//22 91//19
f 94//22 96//22 95//22 93//22
f 96//22 86//22 85//22 95//22
f 98//51 102//52 101//53 97//54
f 99//55 103//56 102//52 98//51
f 100//38 104//34 103//56 99//55
f 102//52 106//57 105//58 101//53
f 103//56 107//59 106//57 102//52
f 104//34 108//30 107//59 103//56
f 106//57 110//60 109//61 105//58
f 107//59 111//62 110//60 106//57
f 108//30 112//29 111//62 107//59
f 110//60 114//51 113//54 109//61
f 111//62 115//55 114//51 110//60
f 112//29 116//38 115//55 111//62
f 114//51 118//35 117//54 113//54
f 115//55 119//37 118//35 114//51
f 116//38 120//38 119//37 115//55
f 118//35 98//51 97//54 117//54
f 119//37 99//55 98//51 118//35
f 120//38 100//38 99//55 119//37
