# Blender v2.76 (sub 0) OBJ File: ''
# www.blender.org
mtllib r.mtl
o Text_Untitled
v 0.819561 -0.049307 1.024684
v 1.041784 -0.049307 1.024684
v 1.041784 -0.049307 0.913573
v 0.819561 -0.049307 0.913573
v 0.819561 -0.049307 1.358017
v 0.708450 -0.049307 1.358017
v 0.708450 -0.049307 0.802461
v 1.152895 -0.049307 0.802461
v 1.152895 -0.049307 1.024684
v 1.152027 -0.049307 1.024684
v 1.097339 -0.049307 1.080239
v 1.152895 -0.049307 1.135795
v 1.152895 -0.049307 1.358017
v 1.041784 -0.049307 1.358017
v 1.041784 -0.049307 1.135795
v 0.819561 -0.049307 1.135795
v 0.819561 -0.137307 1.024684
v 1.041784 -0.137307 1.024684
v 1.041784 -0.137307 0.913573
v 0.819561 -0.137307 0.913573
v 0.819561 -0.137307 1.358017
v 0.708450 -0.137307 1.358017
v 0.708450 -0.137307 0.802461
v 1.152895 -0.137307 0.802461
v 1.152895 -0.137307 1.024684
v 1.152027 -0.137307 1.024684
v 1.097339 -0.137307 1.080239
v 1.152895 -0.137307 1.135795
v 1.152895 -0.137307 1.358017
v 1.041784 -0.137307 1.358017
v 1.041784 -0.137307 1.135795
v 0.819561 -0.137307 1.135795
v 0.819561 -0.137307 1.024684
v 0.821061 -0.136906 1.023184
v 0.822160 -0.135807 1.022086
v 0.822561 -0.134308 1.021684
v 1.041784 -0.137307 1.024684
v 1.040284 -0.136906 1.023184
v 1.039186 -0.135807 1.022086
v 1.038784 -0.134308 1.021684
v 1.041784 -0.137307 0.913573
v 1.040284 -0.136906 0.915073
v 1.039186 -0.135807 0.916171
v 1.038784 -0.134308 0.916573
v 0.819561 -0.137307 0.913573
v 0.821061 -0.136906 0.915073
v 0.822160 -0.135807 0.916171
v 0.822561 -0.134308 0.916573
v 0.822561 -0.134308 1.021684
v 0.822561 -0.052307 1.021684
v 1.038784 -0.134308 1.021684
v 1.038784 -0.052307 1.021684
v 1.038784 -0.134308 0.916573
v 1.038784 -0.052307 0.916573
v 0.822561 -0.134308 0.916573
v 0.822561 -0.052307 0.916573
v 0.822561 -0.052307 1.021684
v 0.822160 -0.050807 1.022086
v 0.821061 -0.049709 1.023184
v 0.819561 -0.049307 1.024684
v 1.038784 -0.052307 1.021684
v 1.039186 -0.050807 1.022086
v 1.040284 -0.049709 1.023184
v 1.041784 -0.049307 1.024684
v 1.038784 -0.052307 0.916573
v 1.039186 -0.050807 0.916171
v 1.040284 -0.049709 0.915073
v 1.041784 -0.049307 0.913573
v 0.822561 -0.052307 0.916573
v 0.822160 -0.050807 0.916171
v 0.821061 -0.049709 0.915073
v 0.819561 -0.049307 0.913573
v 0.819561 -0.137307 1.358017
v 0.821061 -0.136906 1.359517
v 0.822160 -0.135807 1.360615
v 0.822561 -0.134308 1.361017
v 0.708450 -0.137307 1.358017
v 0.706950 -0.136906 1.359517
v 0.705852 -0.135807 1.360615
v 0.705450 -0.134308 1.361017
v 0.708450 -0.137307 0.802461
v 0.706950 -0.136906 0.800961
v 0.705852 -0.135807 0.799863
v 0.705450 -0.134308 0.799461
v 1.152895 -0.137307 0.802461
v 1.154395 -0.136906 0.800961
v 1.155493 -0.135807 0.799863
v 1.155895 -0.134308 0.799461
v 1.152895 -0.137307 1.024684
v 1.154395 -0.136906 1.026184
v 1.155493 -0.135807 1.027282
v 1.155895 -0.134308 1.027684
v 1.152027 -0.137307 1.024684
v 1.152655 -0.136906 1.026184
v 1.153115 -0.135807 1.027282
v 1.153283 -0.134308 1.027684
v 1.097339 -0.137307 1.080239
v 1.099452 -0.136906 1.080231
v 1.100999 -0.135807 1.080225
v 1.101565 -0.134308 1.080223
v 1.152895 -0.137307 1.135795
v 1.154395 -0.136906 1.135173
v 1.155493 -0.135807 1.134719
v 1.155895 -0.134308 1.134552
v 1.152895 -0.137307 1.358017
v 1.154395 -0.136906 1.359517
v 1.155493 -0.135807 1.360615
v 1.155895 -0.134308 1.361017
v 1.041784 -0.137307 1.358017
v 1.040284 -0.136906 1.359517
v 1.039186 -0.135807 1.360615
v 1.038784 -0.134308 1.361017
v 1.041784 -0.137307 1.135795
v 1.040284 -0.136906 1.137295
v 1.039186 -0.135807 1.138393
v 1.038784 -0.134308 1.138795
v 0.819561 -0.137307 1.135795
v 0.821061 -0.136906 1.137295
v 0.822160 -0.135807 1.138393
v 0.822561 -0.134308 1.138795
v 0.822561 -0.134308 1.361017
v 0.822561 -0.052307 1.361017
v 0.705450 -0.134308 1.361017
v 0.705450 -0.052307 1.361017
v 0.705450 -0.134308 0.799461
v 0.705450 -0.052307 0.799461
v 1.155895 -0.134308 0.799461
v 1.155895 -0.052307 0.799461
v 1.155895 -0.134308 1.027684
v 1.155895 -0.052307 1.027684
v 1.153283 -0.134308 1.027684
v 1.153283 -0.052307 1.027684
v 1.101565 -0.134308 1.080223
v 1.101565 -0.052307 1.080223
v 1.155895 -0.134308 1.134552
v 1.155895 -0.052307 1.134552
v 1.155895 -0.134308 1.361017
v 1.155895 -0.052307 1.361017
v 1.038784 -0.134308 1.361017
v 1.038784 -0.052307 1.361017
v 1.038784 -0.134308 1.138795
v 1.038784 -0.052307 1.138795
v 0.822561 -0.134308 1.138795
v 0.822561 -0.052307 1.138795
v 0.822561 -0.052307 1.361017
v 0.822160 -0.050807 1.360615
v 0.821061 -0.049709 1.359517
v 0.819561 -0.049307 1.358017
v 0.705450 -0.052307 1.361017
v 0.705852 -0.050807 1.360615
v 0.706950 -0.049709 1.359517
v 0.708450 -0.049307 1.358017
v 0.705450 -0.052307 0.799461
v 0.705852 -0.050807 0.799863
v 0.706950 -0.049709 0.800961
v 0.708450 -0.049307 0.802461
v 1.155895 -0.052307 0.799461
v 1.155493 -0.050807 0.799863
v 1.154395 -0.049709 0.800961
v 1.152895 -0.049307 0.802461
v 1.155895 -0.052307 1.027684
v 1.155493 -0.050807 1.027282
v 1.154395 -0.049709 1.026184
v 1.152895 -0.049307 1.024684
v 1.153283 -0.052307 1.027684
v 1.153115 -0.050807 1.027282
v 1.152655 -0.049709 1.026184
v 1.152027 -0.049307 1.024684
v 1.101565 -0.052307 1.080223
v 1.100999 -0.050807 1.080225
v 1.099452 -0.049709 1.080231
v 1.097339 -0.049307 1.080239
v 1.155895 -0.052307 1.134552
v 1.155493 -0.050807 1.134719
v 1.154395 -0.049709 1.135173
v 1.152895 -0.049307 1.135795
v 1.155895 -0.052307 1.361017
v 1.155493 -0.050807 1.360615
v 1.154395 -0.049709 1.359517
v 1.152895 -0.049307 1.358017
v 1.038784 -0.052307 1.361017
v 1.039186 -0.050807 1.360615
v 1.040284 -0.049709 1.359517
v 1.041784 -0.049307 1.358017
v 1.038784 -0.052307 1.138795
v 1.039186 -0.050807 1.138393
v 1.040284 -0.049709 1.137295
v 1.041784 -0.049307 1.135795
v 0.822561 -0.052307 1.138795
v 0.822160 -0.050807 1.138393
v 0.821061 -0.049709 1.137295
v 0.819561 -0.049307 1.135795
vn 0.000000 1.000000 0.000000
vn 0.000000 0.000000 1.000000
vn 0.000000 -1.000000 0.000000
vn 0.000000 0.000000 -1.000000
vn 0.208500 -0.955500 -0.208500
vn -0.208500 -0.955500 -0.208500
vn -0.131600 -0.982500 -0.131600
vn 0.131600 -0.982500 -0.131600
vn 0.513500 -0.687500 -0.513500
vn -0.513500 -0.687500 -0.513500
vn 0.661200 -0.354300 -0.661200
vn -0.661200 -0.354300 -0.661200
vn -0.208500 -0.955500 0.208500
vn -0.131600 -0.982500 0.131600
vn -0.513400 -0.687500 0.513500
vn -0.661200 -0.354300 0.661200
vn 0.208500 -0.955500 0.208500
vn 0.131600 -0.982500 0.131600
vn 0.513400 -0.687500 0.513500
vn 0.661200 -0.354300 0.661200
vn 0.707100 0.000000 -0.707100
vn -0.707100 0.000000 -0.707100
vn -0.707100 0.000000 0.707100
vn 0.707100 0.000000 0.707100
vn 0.513500 0.687500 -0.513500
vn -0.513500 0.687500 -0.513500
vn -0.661200 0.354300 -0.661200
vn 0.661200 0.354300 -0.661200
vn 0.208500 0.955500 -0.208500
vn -0.208500 0.955500 -0.208500
vn 0.131600 0.982500 -0.131600
vn -0.131600 0.982500 -0.131600
vn -0.513400 0.687500 0.513500
vn -0.661200 0.354300 0.661200
vn -0.208500 0.955500 0.208500
vn -0.131600 0.982500 0.131600
vn 0.513400 0.687500 0.513500
vn 0.661200 0.354300 0.661200
vn 0.208500 0.955500 0.208500
vn 0.131600 0.982500 0.131600
vn 0.333200 -0.882000 0.333200
vn -0.333200 -0.882000 0.333200
vn 0.588500 -0.554200 0.588500
vn -0.588500 -0.554200 0.588500
vn 0.661200 -0.354400 0.661200
vn -0.661200 -0.354400 0.661200
vn -0.333200 -0.882000 -0.333200
vn -0.588500 -0.554200 -0.588500
vn -0.661200 -0.354400 -0.661200
vn 0.333200 -0.882000 -0.333200
vn 0.588500 -0.554200 -0.588500
vn 0.661200 -0.354400 -0.661200
vn 0.333200 -0.882000 0.333100
vn 0.588500 -0.554200 0.588600
vn 0.163200 -0.906300 0.389700
vn 0.092700 -0.970800 0.221300
vn 0.320500 -0.558300 0.765200
vn 0.371000 -0.278900 0.885700
vn 0.296400 -0.955000 -0.001200
vn 0.186800 -0.982400 -0.000700
vn 0.727800 -0.685800 -0.002900
vn 0.935500 -0.353200 -0.003700
vn 0.480000 -0.854400 -0.198800
vn 0.222000 -0.970700 -0.091900
vn 0.801000 -0.498400 -0.331800
vn 0.887300 -0.278600 -0.367500
vn -0.333100 -0.882000 0.333200
vn -0.588600 -0.554200 0.588500
vn 0.386300 0.000000 0.922400
vn 1.000000 0.000000 -0.003900
vn 0.923900 0.000000 -0.382700
vn 0.588500 0.554200 0.588500
vn -0.588500 0.554200 0.588500
vn -0.661200 0.354400 0.661200
vn 0.661200 0.354400 0.661200
vn 0.333200 0.882000 0.333200
vn -0.333200 0.882000 0.333200
vn -0.588500 0.554200 -0.588500
vn -0.661200 0.354400 -0.661200
vn -0.333200 0.882000 -0.333200
vn 0.588500 0.554200 -0.588500
vn 0.661200 0.354400 -0.661200
vn 0.333200 0.882000 -0.333200
vn 0.588500 0.554200 0.588600
vn 0.333200 0.882000 0.333100
vn 0.320500 0.558300 0.765200
vn 0.371000 0.278900 0.885700
vn 0.163200 0.906300 0.389700
vn 0.092700 0.970800 0.221300
vn 0.727800 0.685800 -0.002900
vn 0.935500 0.353200 -0.003700
vn 0.296400 0.955000 -0.001200
vn 0.186800 0.982400 -0.000700
vn 0.801000 0.498400 -0.331800
vn 0.887300 0.278600 -0.367500
vn 0.480000 0.854400 -0.198800
vn 0.222000 0.970700 -0.091900
vn -0.588600 0.554200 0.588500
vn -0.333100 0.882000 0.333200
usemtl None
s off
f 6//1 4//1 7//1
f 4//1 8//1 7//1
f 4//1 3//1 8//1
f 3//1 9//1 8//1
f 6//1 1//1 4//1
f 2//1 9//1 3//1
f 6//1 16//1 1//1
f 16//1 2//1 1//1
f 16//1 10//1 2//1
f 10//2 9//2 2//2
f 16//1 11//1 10//1
f 16//1 12//1 11//1
f 6//1 5//1 16//1
f 15//2 12//2 16//2
f 14//1 12//1 15//1
f 14//1 13//1 12//1
f 20//3 22//3 23//3
f 24//3 20//3 23//3
f 19//3 20//3 24//3
f 25//3 19//3 24//3
f 17//3 22//3 20//3
f 25//3 18//3 19//3
f 32//3 22//3 17//3
f 18//3 32//3 17//3
f 26//3 32//3 18//3
f 25//4 26//4 18//4
f 27//3 32//3 26//3
f 28//3 32//3 27//3
f 21//3 22//3 32//3
f 28//2 31//2 32//2
f 28//3 30//3 31//3
f 29//3 30//3 28//3
s 1
f 34//5 38//6 37//7 33//8
f 35//9 39//10 38//6 34//5
f 36//11 40//12 39//10 35//9
f 38//6 42//13 41//14 37//7
f 39//10 43//15 42//13 38//6
f 40//12 44//16 43//15 39//10
f 42//13 46//17 45//18 41//14
f 43//15 47//19 46//17 42//13
f 44//16 48//20 47//19 43//15
f 46//17 34//5 33//8 45//18
f 47//19 35//9 34//5 46//17
f 48//20 36//11 35//9 47//19
f 50//21 52//22 51//22 49//21
f 52//22 54//23 53//23 51//22
f 54//23 56//24 55//24 53//23
f 56//24 50//21 49//21 55//24
f 58//25 62//26 61//27 57//28
f 59//29 63//30 62//26 58//25
f 60//31 64//32 63//30 59//29
f 62//26 66//33 65//34 61//27
f 63//30 67//35 66//33 62//26
f 64//32 68//36 67//35 63//30
f 66//33 70//37 69//38 65//34
f 67//35 71//39 70//37 66//33
f 68//36 72//40 71//39 67//35
f 70//37 58//25 57//28 69//38
f 71//39 59//29 58//25 70//37
f 72//40 60//31 59//29 71//39
f 74//41 78//42 77//14 73//18
f 75//43 79//44 78//42 74//41
f 76//45 80//46 79//44 75//43
f 78//42 82//47 81//7 77//14
f 79//44 83//48 82//47 78//42
f 80//46 84//49 83//48 79//44
f 82//47 86//50 85//8 81//7
f 83//48 87//51 86//50 82//47
f 84//49 88//52 87//51 83//48
f 86//50 90//53 89//18 85//8
f 87//51 91//54 90//53 86//50
f 88//52 92//45 91//54 87//51
f 90//53 94//55 93//56 89//18
f 91//54 95//57 94//55 90//53
f 92//45 96//58 95//57 91//54
f 94//55 98//59 97//60 93//56
f 95//57 99//61 98//59 94//55
f 96//58 100//62 99//61 95//57
f 98//59 102//63 101//64 97//60
f 99//61 103//65 102//63 98//59
f 100//62 104//66 103//65 99//61
f 102//63 106//41 105//18 101//64
f 103//65 107//43 106//41 102//63
f 104//66 108//45 107//43 103//65
f 106//41 110//67 109//14 105//18
f 107//43 111//68 110//67 106//41
f 108//45 112//16 111//68 107//43
f 110//67 114//13 113//14 109//14
f 111//68 115//15 114//13 110//67
f 112//16 116//16 115//15 111//68
f 114//13 118//17 117//18 113//14
f 115//15 119//19 118//17 114//13
f 116//16 120//45 119//19 115//15
f 118//17 74//41 73//18 117//18
f 119//19 75//43 74//41 118//17
f 120//45 76//45 75//43 119//19
f 122//24 124//23 123//23 121//24
f 124//23 126//22 125//22 123//23
f 126//22 128//21 127//21 125//22
f 128//21 130//24 129//24 127//21
f 130//24 132//69 131//69 129//24
f 132//69 134//70 133//70 131//69
f 134//70 136//71 135//71 133//70
f 136//71 138//24 137//24 135//71
f 138//24 140//23 139//23 137//24
f 140//23 142//23 141//23 139//23
f 142//23 144//24 143//24 141//23
f 144//24 122//24 121//24 143//24
f 146//72 150//73 149//74 145//75
f 147//76 151//77 150//73 146//72
f 148//40 152//36 151//77 147//76
f 150//73 154//78 153//79 149//74
f 151//77 155//80 154//78 150//73
f 152//36 156//32 155//80 151//77
f 154//78 158//81 157//82 153//79
f 155//80 159//83 158//81 154//78
f 156//32 160//31 159//83 155//80
f 158//81 162//84 161//75 157//82
f 159//83 163//85 162//84 158//81
f 160//31 164//40 163//85 159//83
f 162//84 166//86 165//87 161//75
f 163//85 167//88 166//86 162//84
f 164//40 168//89 167//88 163//85
f 166//86 170//90 169//91 165//87
f 167//88 171//92 170//90 166//86
f 168//89 172//93 171//92 167//88
f 170//90 174//94 173//95 169//91
f 171//92 175//96 174//94 170//90
f 172//93 176//97 175//96 171//92
f 174//94 178//72 177//75 173//95
f 175//96 179//76 178//72 174//94
f 176//97 180//40 179//76 175//96
f 178//72 182//98 181//34 177//75
f 179//76 183//99 182//98 178//72
f 180//40 184//36 183//99 179//76
f 182//98 186//33 185//34 181//34
f 183//99 187//35 186//33 182//98
f 184//36 188//36 187//35 183//99
f 186//33 190//37 189//75 185//34
f 187//35 191//39 190//37 186//33
f 188//36 192//40 191//39 187//35
f 190//37 146//72 145//75 189//75
f 191//39 147//76 146//72 190//37
f 192//40 148//40 147//76 191//39
