# Blender v2.76 (sub 0) OBJ File: ''
# www.blender.org
mtllib s.mtl
o Text_Untitled
v 1.152895 -0.049307 1.358017
v 0.708450 -0.049307 1.358017
v 0.708450 -0.049307 1.246906
v 1.041784 -0.049307 1.246906
v 1.041784 -0.049307 1.135795
v 0.708450 -0.049307 1.135795
v 0.708450 -0.049307 0.802461
v 1.152895 -0.049307 0.802461
v 1.152895 -0.049307 0.913573
v 0.819561 -0.049307 0.913573
v 0.819561 -0.049307 1.024684
v 1.152895 -0.049307 1.024684
v 1.152895 -0.137307 1.358017
v 0.708450 -0.137307 1.358017
v 0.708450 -0.137307 1.246906
v 1.041784 -0.137307 1.246906
v 1.041784 -0.137307 1.135795
v 0.708450 -0.137307 1.135795
v 0.708450 -0.137307 0.802461
v 1.152895 -0.137307 0.802461
v 1.152895 -0.137307 0.913573
v 0.819561 -0.137307 0.913573
v 0.819561 -0.137307 1.024684
v 1.152895 -0.137307 1.024684
v 1.152895 -0.137307 1.358017
v 1.154395 -0.136906 1.359517
v 1.155493 -0.135807 1.360615
v 1.155895 -0.134308 1.361017
v 0.708450 -0.137307 1.358017
v 0.706950 -0.136906 1.359517
v 0.705852 -0.135807 1.360615
v 0.705450 -0.134308 1.361017
v 0.708450 -0.137307 1.246906
v 0.706950 -0.136906 1.245406
v 0.705852 -0.135807 1.244308
v 0.705450 -0.134308 1.243906
v 1.041784 -0.137307 1.246906
v 1.040284 -0.136906 1.245406
v 1.039186 -0.135807 1.244308
v 1.038784 -0.134308 1.243906
v 1.041784 -0.137307 1.135795
v 1.040284 -0.136906 1.137295
v 1.039186 -0.135807 1.138393
v 1.038784 -0.134308 1.138795
v 0.708450 -0.137307 1.135795
v 0.706950 -0.136906 1.137295
v 0.705852 -0.135807 1.138393
v 0.705450 -0.134308 1.138795
v 0.708450 -0.137307 0.802461
v 0.706950 -0.136906 0.800961
v 0.705852 -0.135807 0.799863
v 0.705450 -0.134308 0.799461
v 1.152895 -0.137307 0.802461
v 1.154395 -0.136906 0.800961
v 1.155493 -0.135807 0.799863
v 1.155895 -0.134308 0.799461
v 1.152895 -0.137307 0.913573
v 1.154395 -0.136906 0.915073
v 1.155493 -0.135807 0.916171
v 1.155895 -0.134308 0.916573
v 0.819561 -0.137307 0.913573
v 0.821061 -0.136906 0.915073
v 0.822160 -0.135807 0.916171
v 0.822561 -0.134308 0.916573
v 0.819561 -0.137307 1.024684
v 0.821061 -0.136906 1.023184
v 0.822160 -0.135807 1.022086
v 0.822561 -0.134308 1.021684
v 1.152895 -0.137307 1.024684
v 1.154395 -0.136906 1.023184
v 1.155493 -0.135807 1.022086
v 1.155895 -0.134308 1.021684
v 1.155895 -0.134308 1.361017
v 1.155895 -0.052307 1.361017
v 0.705450 -0.134308 1.361017
v 0.705450 -0.052307 1.361017
v 0.705450 -0.134308 1.243906
v 0.705450 -0.052307 1.243906
v 1.038784 -0.134308 1.243906
v 1.038784 -0.052307 1.243906
v 1.038784 -0.134308 1.138795
v 1.038784 -0.052307 1.138795
v 0.705450 -0.134308 1.138795
v 0.705450 -0.052307 1.138795
v 0.705450 -0.134308 0.799461
v 0.705450 -0.052307 0.799461
v 1.155895 -0.134308 0.799461
v 1.155895 -0.052307 0.799461
v 1.155895 -0.134308 0.916573
v 1.155895 -0.052307 0.916573
v 0.822561 -0.134308 0.916573
v 0.822561 -0.052307 0.916573
v 0.822561 -0.134308 1.021684
v 0.822561 -0.052307 1.021684
v 1.155895 -0.134308 1.021684
v 1.155895 -0.052307 1.021684
v 1.155895 -0.052307 1.361017
v 1.155493 -0.050807 1.360615
v 1.154395 -0.049709 1.359517
v 1.152895 -0.049307 1.358017
v 0.705450 -0.052307 1.361017
v 0.705852 -0.050807 1.360615
v 0.706950 -0.049709 1.359517
v 0.708450 -0.049307 1.358017
v 0.705450 -0.052307 1.243906
v 0.705852 -0.050807 1.244308
v 0.706950 -0.049709 1.245406
v 0.708450 -0.049307 1.246906
v 1.038784 -0.052307 1.243906
v 1.039186 -0.050807 1.244308
v 1.040284 -0.049709 1.245406
v 1.041784 -0.049307 1.246906
v 1.038784 -0.052307 1.138795
v 1.039186 -0.050807 1.138393
v 1.040284 -0.049709 1.137295
v 1.041784 -0.049307 1.135795
v 0.705450 -0.052307 1.138795
v 0.705852 -0.050807 1.138393
v 0.706950 -0.049709 1.137295
v 0.708450 -0.049307 1.135795
v 0.705450 -0.052307 0.799461
v 0.705852 -0.050807 0.799863
v 0.706950 -0.049709 0.800961
v 0.708450 -0.049307 0.802461
v 1.155895 -0.052307 0.799461
v 1.155493 -0.050807 0.799863
v 1.154395 -0.049709 0.800961
v 1.152895 -0.049307 0.802461
v 1.155895 -0.052307 0.916573
v 1.155493 -0.050807 0.916171
v 1.154395 -0.049709 0.915073
v 1.152895 -0.049307 0.913573
v 0.822561 -0.052307 0.916573
v 0.822160 -0.050807 0.916171
v 0.821061 -0.049709 0.915073
v 0.819561 -0.049307 0.913573
v 0.822561 -0.052307 1.021684
v 0.822160 -0.050807 1.022086
v 0.821061 -0.049709 1.023184
v 0.819561 -0.049307 1.024684
v 1.155895 -0.052307 1.021684
v 1.155493 -0.050807 1.022086
v 1.154395 -0.049709 1.023184
v 1.152895 -0.049307 1.024684
vn 0.000000 1.000000 0.000000
vn 0.000000 -1.000000 0.000000
vn 0.333200 -0.882000 0.333200
vn -0.333200 -0.882000 0.333200
vn -0.131600 -0.982500 0.131600
vn 0.131600 -0.982500 0.131600
vn 0.588500 -0.554200 0.588500
vn -0.588500 -0.554200 0.588500
vn 0.661200 -0.354400 0.661200
vn -0.661200 -0.354400 0.661200
vn -0.333200 -0.882000 -0.333100
vn -0.131600 -0.982500 -0.131600
vn -0.588500 -0.554200 -0.588600
vn -0.661200 -0.354300 -0.661200
vn -0.208500 -0.955500 -0.208500
vn -0.513500 -0.687500 -0.513500
vn -0.208500 -0.955500 0.208500
vn -0.513400 -0.687500 0.513500
vn -0.661200 -0.354300 0.661200
vn -0.333200 -0.882000 -0.333200
vn -0.588500 -0.554200 -0.588500
vn -0.661200 -0.354400 -0.661200
vn 0.333100 -0.882000 -0.333200
vn 0.131600 -0.982500 -0.131600
vn 0.588500 -0.554200 -0.588500
vn 0.661200 -0.354400 -0.661200
vn 0.333100 -0.882000 0.333200
vn 0.661200 -0.354300 0.661200
vn 0.208500 -0.955500 0.208500
vn 0.513400 -0.687500 0.513500
vn 0.208500 -0.955500 -0.208500
vn 0.513500 -0.687500 -0.513500
vn 0.661200 -0.354300 -0.661200
vn 0.333200 -0.882000 -0.333200
vn 0.588500 -0.554200 -0.588600
vn 0.707100 0.000000 0.707100
vn -0.707100 0.000000 0.707100
vn -0.707100 0.000000 -0.707100
vn 0.707100 0.000000 -0.707100
vn 0.588500 0.554200 0.588500
vn -0.588500 0.554200 0.588500
vn -0.661200 0.354400 0.661200
vn 0.661200 0.354400 0.661200
vn 0.333200 0.882000 0.333200
vn -0.333200 0.882000 0.333200
vn 0.131600 0.982500 0.131600
vn -0.131600 0.982500 0.131600
vn -0.588500 0.554200 -0.588600
vn -0.661200 0.354300 -0.661200
vn -0.333200 0.882000 -0.333100
vn -0.131600 0.982500 -0.131600
vn -0.513500 0.687500 -0.513500
vn -0.208500 0.955500 -0.208500
vn -0.513400 0.687500 0.513500
vn -0.661200 0.354300 0.661200
vn -0.208500 0.955500 0.208500
vn -0.588500 0.554200 -0.588500
vn -0.661200 0.354400 -0.661200
vn -0.333200 0.882000 -0.333200
vn 0.588500 0.554200 -0.588500
vn 0.661200 0.354400 -0.661200
vn 0.333100 0.882000 -0.333200
vn 0.131600 0.982500 -0.131600
vn 0.661200 0.354300 0.661200
vn 0.333100 0.882000 0.333200
vn 0.513400 0.687500 0.513500
vn 0.208500 0.955500 0.208500
vn 0.513500 0.687500 -0.513500
vn 0.661200 0.354300 -0.661200
vn 0.208500 0.955500 -0.208500
vn 0.588500 0.554200 -0.588600
vn 0.333200 0.882000 -0.333200
usemtl None
s off
f 6//1 10//1 7//1
f 10//1 8//1 7//1
f 10//1 9//1 8//1
f 6//1 11//1 10//1
f 6//1 12//1 11//1
f 6//1 5//1 12//1
f 5//1 1//1 12//1
f 4//1 1//1 5//1
f 2//1 4//1 3//1
f 2//1 1//1 4//1
f 22//2 18//2 19//2
f 20//2 22//2 19//2
f 21//2 22//2 20//2
f 23//2 18//2 22//2
f 24//2 18//2 23//2
f 17//2 18//2 24//2
f 13//2 17//2 24//2
f 13//2 16//2 17//2
f 16//2 14//2 15//2
f 13//2 14//2 16//2
s 1
f 26//3 30//4 29//5 25//6
f 27//7 31//8 30//4 26//3
f 28//9 32//10 31//8 27//7
f 30//4 34//11 33//12 29//5
f 31//8 35//13 34//11 30//4
f 32//10 36//14 35//13 31//8
f 34//11 38//15 37//12 33//12
f 35//13 39//16 38//15 34//11
f 36//14 40//14 39//16 35//13
f 38//15 42//17 41//5 37//12
f 39//16 43//18 42//17 38//15
f 40//14 44//19 43//18 39//16
f 42//17 46//4 45//5 41//5
f 43//18 47//8 46//4 42//17
f 44//19 48//10 47//8 43//18
f 46//4 50//20 49//12 45//5
f 47//8 51//21 50//20 46//4
f 48//10 52//22 51//21 47//8
f 50//20 54//23 53//24 49//12
f 51//21 55//25 54//23 50//20
f 52//22 56//26 55//25 51//21
f 54//23 58//27 57//6 53//24
f 55//25 59//7 58//27 54//23
f 56//26 60//28 59//7 55//25
f 58//27 62//29 61//6 57//6
f 59//7 63//30 62//29 58//27
f 60//28 64//28 63//30 59//7
f 62//29 66//31 65//24 61//6
f 63//30 67//32 66//31 62//29
f 64//28 68//33 67//32 63//30
f 66//31 70//34 69//24 65//24
f 67//32 71//35 70//34 66//31
f 68//33 72//26 71//35 67//32
f 70//34 26//3 25//6 69//24
f 71//35 27//7 26//3 70//34
f 72//26 28//9 27//7 71//35
f 74//36 76//37 75//37 73//36
f 76//37 78//38 77//38 75//37
f 78//38 80//38 79//38 77//38
f 80//38 82//37 81//37 79//38
f 82//37 84//37 83//37 81//37
f 84//37 86//38 85//38 83//37
f 86//38 88//39 87//39 85//38
f 88//39 90//36 89//36 87//39
f 90//36 92//36 91//36 89//36
f 92//36 94//39 93//39 91//36
f 94//39 96//39 95//39 93//39
f 96//39 74//36 73//36 95//39
f 98//40 102//41 101//42 97//43
f 99//44 103//45 102//41 98//40
f 100//46 104//47 103//45 99//44
f 102//41 106//48 105//49 101//42
f 103//45 107//50 106//48 102//41
f 104//47 108//51 107//50 103//45
f 106//48 110//52 109//49 105//49
f 107//50 111//53 110//52 106//48
f 108//51 112//51 111//53 107//50
f 110//52 114//54 113//55 109//49
f 111//53 115//56 114//54 110//52
f 112//51 116//47 115//56 111//53
f 114//54 118//41 117//42 113//55
f 115//56 119//45 118//41 114//54
f 116//47 120//47 119//45 115//56
f 118//41 122//57 121//58 117//42
f 119//45 123//59 122//57 118//41
f 120//47 124//51 123//59 119//45
f 122//57 126//60 125//61 121//58
f 123//59 127//62 126//60 122//57
f 124//51 128//63 127//62 123//59
f 126//60 130//40 129//64 125//61
f 127//62 131//65 130//40 126//60
f 128//63 132//46 131//65 127//62
f 130//40 134//66 133//64 129//64
f 131//65 135//67 134//66 130//40
f 132//46 136//46 135//67 131//65
f 134//66 138//68 137//69 133//64
f 135//67 139//70 138//68 134//66
f 136//46 140//63 139//70 135//67
f 138//68 142//71 141//61 137//69
f 139//70 143//72 142//71 138//68
f 140//63 144//63 143//72 139//70
f 142//71 98//40 97//43 141//61
f 143//72 99//44 98//40 142//71
f 144//63 100//46 99//44 143//72
