# Blender v2.76 (sub 0) OBJ File: ''
# www.blender.org
mtllib u.mtl
o Text_Untitled
v 1.152895 -0.049307 1.358017
v 0.708450 -0.049307 1.358017
v 0.708450 -0.049307 0.802461
v 0.819561 -0.049307 0.802461
v 0.819561 -0.049307 1.246906
v 1.041784 -0.049307 1.246906
v 1.041784 -0.049307 0.802461
v 1.152895 -0.049307 0.802461
v 1.152895 -0.137307 1.358017
v 0.708450 -0.137307 1.358017
v 0.708450 -0.137307 0.802461
v 0.819561 -0.137307 0.802461
v 0.819561 -0.137307 1.246906
v 1.041784 -0.137307 1.246906
v 1.041784 -0.137307 0.802461
v 1.152895 -0.137307 0.802461
v 1.152895 -0.137307 1.358017
v 1.154395 -0.136906 1.359517
v 1.155493 -0.135807 1.360615
v 1.155895 -0.134308 1.361017
v 0.708450 -0.137307 1.358017
v 0.706950 -0.136906 1.359517
v 0.705852 -0.135807 1.360615
v 0.705450 -0.134308 1.361017
v 0.708450 -0.137307 0.802461
v 0.706950 -0.136906 0.800961
v 0.705852 -0.135807 0.799863
v 0.705450 -0.134308 0.799461
v 0.819561 -0.137307 0.802461
v 0.821061 -0.136906 0.800961
v 0.822160 -0.135807 0.799863
v 0.822561 -0.134308 0.799461
v 0.819561 -0.137307 1.246906
v 0.821061 -0.136906 1.245406
v 0.822160 -0.135807 1.244308
v 0.822561 -0.134308 1.243906
v 1.041784 -0.137307 1.246906
v 1.040284 -0.136906 1.245406
v 1.039186 -0.135807 1.244308
v 1.038784 -0.134308 1.243906
v 1.041784 -0.137307 0.802461
v 1.040284 -0.136906 0.800961
v 1.039186 -0.135807 0.799863
v 1.038784 -0.134308 0.799461
v 1.152895 -0.137307 0.802461
v 1.154395 -0.136906 0.800961
v 1.155493 -0.135807 0.799863
v 1.155895 -0.134308 0.799461
v 1.155895 -0.134308 1.361017
v 1.155895 -0.052307 1.361017
v 0.705450 -0.134308 1.361017
v 0.705450 -0.052307 1.361017
v 0.705450 -0.134308 0.799461
v 0.705450 -0.052307 0.799461
v 0.822561 -0.134308 0.799461
v 0.822561 -0.052307 0.799461
v 0.822561 -0.134308 1.243906
v 0.822561 -0.052307 1.243906
v 1.038784 -0.134308 1.243906
v 1.038784 -0.052307 1.243906
v 1.038784 -0.134308 0.799461
v 1.038784 -0.052307 0.799461
v 1.155895 -0.134308 0.799461
v 1.155895 -0.052307 0.799461
v 1.155895 -0.052307 1.361017
v 1.155493 -0.050807 1.360615
v 1.154395 -0.049709 1.359517
v 1.152895 -0.049307 1.358017
v 0.705450 -0.052307 1.361017
v 0.705852 -0.050807 1.360615
v 0.706950 -0.049709 1.359517
v 0.708450 -0.049307 1.358017
v 0.705450 -0.052307 0.799461
v 0.705852 -0.050807 0.799863
v 0.706950 -0.049709 0.800961
v 0.708450 -0.049307 0.802461
v 0.822561 -0.052307 0.799461
v 0.822160 -0.050807 0.799863
v 0.821061 -0.049709 0.800961
v 0.819561 -0.049307 0.802461
v 0.822561 -0.052307 1.243906
v 0.822160 -0.050807 1.244308
v 0.821061 -0.049709 1.245406
v 0.819561 -0.049307 1.246906
v 1.038784 -0.052307 1.243906
v 1.039186 -0.050807 1.244308
v 1.040284 -0.049709 1.245406
v 1.041784 -0.049307 1.246906
v 1.038784 -0.052307 0.799461
v 1.039186 -0.050807 0.799863
v 1.040284 -0.049709 0.800961
v 1.041784 -0.049307 0.802461
v 1.155895 -0.052307 0.799461
v 1.155493 -0.050807 0.799863
v 1.154395 -0.049709 0.800961
v 1.152895 -0.049307 0.802461
vn 0.000000 1.000000 0.000000
vn 0.000000 -1.000000 0.000000
vn 0.333100 -0.882000 0.333200
vn -0.333200 -0.882000 0.333200
vn -0.131600 -0.982500 0.131600
vn 0.131600 -0.982500 0.131600
vn 0.588500 -0.554200 0.588500
vn -0.588500 -0.554200 0.588500
vn 0.661200 -0.354400 0.661200
vn -0.661200 -0.354400 0.661200
vn -0.333200 -0.882000 -0.333200
vn -0.131600 -0.982500 -0.131600
vn -0.588500 -0.554200 -0.588500
vn -0.661200 -0.354400 -0.661200
vn 0.333100 -0.882000 -0.333200
vn 0.131600 -0.982500 -0.131600
vn 0.588500 -0.554200 -0.588500
vn 0.661200 -0.354400 -0.661200
vn 0.208500 -0.955500 -0.208500
vn 0.513500 -0.687500 -0.513400
vn 0.661200 -0.354300 -0.661200
vn -0.208500 -0.955500 -0.208500
vn -0.513500 -0.687500 -0.513500
vn -0.661200 -0.354300 -0.661200
vn -0.333100 -0.882000 -0.333200
vn -0.588600 -0.554200 -0.588500
vn 0.707100 0.000000 0.707100
vn -0.707100 0.000000 0.707100
vn -0.707100 0.000000 -0.707100
vn 0.707100 0.000000 -0.707100
vn 0.588500 0.554200 0.588500
vn -0.588500 0.554200 0.588500
vn -0.661200 0.354400 0.661200
vn 0.661200 0.354400 0.661200
vn 0.333100 0.882000 0.333200
vn -0.333200 0.882000 0.333200
vn 0.131600 0.982500 0.131600
vn -0.131600 0.982500 0.131600
vn -0.588500 0.554200 -0.588500
vn -0.661200 0.354400 -0.661200
vn -0.333200 0.882000 -0.333200
vn -0.131600 0.982500 -0.131600
vn 0.588500 0.554200 -0.588500
vn 0.661200 0.354400 -0.661200
vn 0.333100 0.882000 -0.333200
vn 0.131600 0.982500 -0.131600
vn 0.513500 0.687500 -0.513400
vn 0.661200 0.354300 -0.661200
vn 0.208500 0.955500 -0.208500
vn -0.513500 0.687500 -0.513500
vn -0.661200 0.354300 -0.661200
vn -0.208500 0.955500 -0.208500
vn -0.588600 0.554200 -0.588500
vn -0.333100 0.882000 -0.333200
usemtl None
s off
f 2//1 4//1 3//1
f 2//1 5//1 4//1
f 6//1 8//1 7//1
f 6//1 1//1 8//1
f 2//1 6//1 5//1
f 2//1 1//1 6//1
f 12//2 10//2 11//2
f 13//2 10//2 12//2
f 16//2 14//2 15//2
f 9//2 14//2 16//2
f 14//2 10//2 13//2
f 9//2 10//2 14//2
s 1
f 18//3 22//4 21//5 17//6
f 19//7 23//8 22//4 18//3
f 20//9 24//10 23//8 19//7
f 22//4 26//11 25//12 21//5
f 23//8 27//13 26//11 22//4
f 24//10 28//14 27//13 23//8
f 26//11 30//15 29//16 25//12
f 27//13 31//17 30//15 26//11
f 28//14 32//18 31//17 27//13
f 30//15 34//19 33//16 29//16
f 31//17 35//20 34//19 30//15
f 32//18 36//21 35//20 31//17
f 34//19 38//22 37//12 33//16
f 35//20 39//23 38//22 34//19
f 36//21 40//24 39//23 35//20
f 38//22 42//25 41//12 37//12
f 39//23 43//26 42//25 38//22
f 40//24 44//24 43//26 39//23
f 42//25 46//15 45//16 41//12
f 43//26 47//17 46//15 42//25
f 44//24 48//18 47//17 43//26
f 46//15 18//3 17//6 45//16
f 47//17 19//7 18//3 46//15
f 48//18 20//9 19//7 47//17
f 50//27 52//28 51//28 49//27
f 52//28 54//29 53//29 51//28
f 54//29 56//30 55//30 53//29
f 56//30 58//30 57//30 55//30
f 58//30 60//29 59//29 57//30
f 60//29 62//29 61//29 59//29
f 62//29 64//30 63//30 61//29
f 64//30 50//27 49//27 63//30
f 66//31 70//32 69//33 65//34
f 67//35 71//36 70//32 66//31
f 68//37 72//38 71//36 67//35
f 70//32 74//39 73//40 69//33
f 71//36 75//41 74//39 70//32
f 72//38 76//42 75//41 71//36
f 74//39 78//43 77//44 73//40
f 75//41 79//45 78//43 74//39
f 76//42 80//46 79//45 75//41
f 78//43 82//47 81//48 77//44
f 79//45 83//49 82//47 78//43
f 80//46 84//46 83//49 79//45
f 82//47 86//50 85//51 81//48
f 83//49 87//52 86//50 82//47
f 84//46 88//42 87//52 83//49
f 86//50 90//53 89//51 85//51
f 87//52 91//54 90//53 86//50
f 88//42 92//42 91//54 87//52
f 90//53 94//43 93//44 89//51
f 91//54 95//45 94//43 90//53
f 92//42 96//46 95//45 91//54
f 94//43 66//31 65//34 93//44
f 95//45 67//35 66//31 94//43
f 96//46 68//37 67//35 95//45
