# Blender v2.76 (sub 0) OBJ File: ''
# www.blender.org
mtllib v.mtl
o Text_Untitled
v 1.041784 -0.049307 1.358017
v 0.819561 -0.049307 1.358017
v 0.708450 -0.049307 1.246906
v 0.708450 -0.049307 0.802461
v 0.819561 -0.049307 0.802461
v 0.819561 -0.049307 1.246906
v 1.041784 -0.049307 1.246906
v 1.041784 -0.049307 0.802461
v 1.152895 -0.049307 0.802461
v 1.152895 -0.049307 1.246906
v 1.041784 -0.137307 1.358017
v 0.819561 -0.137307 1.358017
v 0.708450 -0.137307 1.246906
v 0.708450 -0.137307 0.802461
v 0.819561 -0.137307 0.802461
v 0.819561 -0.137307 1.246906
v 1.041784 -0.137307 1.246906
v 1.041784 -0.137307 0.802461
v 1.152895 -0.137307 0.802461
v 1.152895 -0.137307 1.246906
v 1.041784 -0.137307 1.358017
v 1.042405 -0.136906 1.359517
v 1.042860 -0.135807 1.360615
v 1.043026 -0.134308 1.361017
v 0.819561 -0.137307 1.358017
v 0.818940 -0.136906 1.359517
v 0.818485 -0.135807 1.360615
v 0.818319 -0.134308 1.361017
v 0.708450 -0.137307 1.246906
v 0.706950 -0.136906 1.247527
v 0.705852 -0.135807 1.247982
v 0.705450 -0.134308 1.248148
v 0.708450 -0.137307 0.802461
v 0.706950 -0.136906 0.800961
v 0.705852 -0.135807 0.799863
v 0.705450 -0.134308 0.799461
v 0.819561 -0.137307 0.802461
v 0.821061 -0.136906 0.800961
v 0.822160 -0.135807 0.799863
v 0.822561 -0.134308 0.799461
v 0.819561 -0.137307 1.246906
v 0.821061 -0.136906 1.245406
v 0.822160 -0.135807 1.244308
v 0.822561 -0.134308 1.243906
v 1.041784 -0.137307 1.246906
v 1.040284 -0.136906 1.245406
v 1.039186 -0.135807 1.244308
v 1.038784 -0.134308 1.243906
v 1.041784 -0.137307 0.802461
v 1.040284 -0.136906 0.800961
v 1.039186 -0.135807 0.799863
v 1.038784 -0.134308 0.799461
v 1.152895 -0.137307 0.802461
v 1.154395 -0.136906 0.800961
v 1.155493 -0.135807 0.799863
v 1.155895 -0.134308 0.799461
v 1.152895 -0.137307 1.246906
v 1.154395 -0.136906 1.247527
v 1.155493 -0.135807 1.247982
v 1.155895 -0.134308 1.248148
v 1.043026 -0.134308 1.361017
v 1.043026 -0.052307 1.361017
v 0.818319 -0.134308 1.361017
v 0.818319 -0.052307 1.361017
v 0.705450 -0.134308 1.248148
v 0.705450 -0.052307 1.248148
v 0.705450 -0.134308 0.799461
v 0.705450 -0.052307 0.799461
v 0.822561 -0.134308 0.799461
v 0.822561 -0.052307 0.799461
v 0.822561 -0.134308 1.243906
v 0.822561 -0.052307 1.243906
v 1.038784 -0.134308 1.243906
v 1.038784 -0.052307 1.243906
v 1.038784 -0.134308 0.799461
v 1.038784 -0.052307 0.799461
v 1.155895 -0.134308 0.799461
v 1.155895 -0.052307 0.799461
v 1.155895 -0.134308 1.248148
v 1.155895 -0.052307 1.248148
v 1.043026 -0.052307 1.361017
v 1.042860 -0.050807 1.360615
v 1.042405 -0.049709 1.359517
v 1.041784 -0.049307 1.358017
v 0.818319 -0.052307 1.361017
v 0.818485 -0.050807 1.360615
v 0.818940 -0.049709 1.359517
v 0.819561 -0.049307 1.358017
v 0.705450 -0.052307 1.248148
v 0.705852 -0.050807 1.247982
v 0.706950 -0.049709 1.247527
v 0.708450 -0.049307 1.246906
v 0.705450 -0.052307 0.799461
v 0.705852 -0.050807 0.799863
v 0.706950 -0.049709 0.800961
v 0.708450 -0.049307 0.802461
v 0.822561 -0.052307 0.799461
v 0.822160 -0.050807 0.799863
v 0.821061 -0.049709 0.800961
v 0.819561 -0.049307 0.802461
v 0.822561 -0.052307 1.243906
v 0.822160 -0.050807 1.244308
v 0.821061 -0.049709 1.245406
v 0.819561 -0.049307 1.246906
v 1.038784 -0.052307 1.243906
v 1.039186 -0.050807 1.244308
v 1.040284 -0.049709 1.245406
v 1.041784 -0.049307 1.246906
v 1.038784 -0.052307 0.799461
v 1.039186 -0.050807 0.799863
v 1.040284 -0.049709 0.800961
v 1.041784 -0.049307 0.802461
v 1.155895 -0.052307 0.799461
v 1.155493 -0.050807 0.799863
v 1.154395 -0.049709 0.800961
v 1.152895 -0.049307 0.802461
v 1.155895 -0.052307 1.248148
v 1.155493 -0.050807 1.247982
v 1.154395 -0.049709 1.247527
v 1.152895 -0.049307 1.246906
vn 0.000000 1.000000 0.000000
vn 0.000000 -1.000000 0.000000
vn 0.198800 -0.854400 0.480000
vn -0.198800 -0.854400 0.480000
vn -0.092000 -0.970700 0.222000
vn 0.092000 -0.970700 0.222000
vn 0.331800 -0.498400 0.801000
vn -0.331800 -0.498300 0.801000
vn 0.367500 -0.278600 0.887300
vn -0.367500 -0.278500 0.887300
vn -0.480000 -0.854400 0.198800
vn -0.222000 -0.970700 0.092000
vn -0.801000 -0.498300 0.331800
vn -0.887300 -0.278500 0.367500
vn -0.333200 -0.882000 -0.333200
vn -0.131600 -0.982500 -0.131600
vn -0.588500 -0.554200 -0.588500
vn -0.661200 -0.354400 -0.661200
vn 0.333100 -0.882000 -0.333200
vn 0.131600 -0.982500 -0.131600
vn 0.588500 -0.554200 -0.588500
vn 0.661200 -0.354400 -0.661200
vn 0.208500 -0.955500 -0.208500
vn 0.513500 -0.687500 -0.513400
vn 0.661200 -0.354300 -0.661200
vn -0.208500 -0.955500 -0.208500
vn -0.513500 -0.687500 -0.513500
vn -0.661200 -0.354300 -0.661200
vn -0.333100 -0.882000 -0.333200
vn -0.588600 -0.554200 -0.588500
vn 0.333200 -0.882000 -0.333200
vn 0.480000 -0.854400 0.198800
vn 0.222000 -0.970700 0.091900
vn 0.801000 -0.498300 0.331800
vn 0.887300 -0.278600 0.367500
vn 0.382700 0.000000 0.923900
vn -0.382700 0.000000 0.923900
vn -0.923900 0.000000 0.382700
vn -0.707100 0.000000 -0.707100
vn 0.707100 0.000000 -0.707100
vn 0.923900 0.000000 0.382700
vn 0.331700 0.498400 0.801000
vn -0.331800 0.498300 0.801000
vn -0.367500 0.278500 0.887300
vn 0.367500 0.278600 0.887300
vn 0.198800 0.854400 0.480000
vn -0.198800 0.854400 0.480000
vn 0.092000 0.970700 0.222000
vn -0.092000 0.970700 0.222000
vn -0.801000 0.498300 0.331800
vn -0.887300 0.278500 0.367500
vn -0.480000 0.854400 0.198800
vn -0.222000 0.970700 0.092000
vn -0.588500 0.554200 -0.588500
vn -0.661200 0.354400 -0.661200
vn -0.333200 0.882000 -0.333200
vn -0.131600 0.982500 -0.131600
vn 0.588500 0.554200 -0.588500
vn 0.661200 0.354400 -0.661200
vn 0.333100 0.882000 -0.333200
vn 0.131600 0.982500 -0.131600
vn 0.513500 0.687500 -0.513400
vn 0.661200 0.354300 -0.661200
vn 0.208500 0.955500 -0.208500
vn -0.513500 0.687500 -0.513500
vn -0.661200 0.354300 -0.661200
vn -0.208500 0.955500 -0.208500
vn -0.588600 0.554200 -0.588500
vn -0.333100 0.882000 -0.333200
vn 0.333200 0.882000 -0.333200
vn 0.801000 0.498300 0.331800
vn 0.887300 0.278600 0.367500
vn 0.480000 0.854400 0.198800
vn 0.222000 0.970700 0.092000
usemtl None
s off
f 3//1 5//1 4//1
f 3//1 6//1 5//1
f 7//1 9//1 8//1
f 7//1 10//1 9//1
f 2//1 6//1 3//1
f 2//1 7//1 6//1
f 2//1 10//1 7//1
f 2//1 1//1 10//1
f 15//2 13//2 14//2
f 16//2 13//2 15//2
f 19//2 17//2 18//2
f 20//2 17//2 19//2
f 16//2 12//2 13//2
f 17//2 12//2 16//2
f 20//2 12//2 17//2
f 11//2 12//2 20//2
s 1
f 22//3 26//4 25//5 21//6
f 23//7 27//8 26//4 22//3
f 24//9 28//10 27//8 23//7
f 26//4 30//11 29//12 25//5
f 27//8 31//13 30//11 26//4
f 28//10 32//14 31//13 27//8
f 30//11 34//15 33//16 29//12
f 31//13 35//17 34//15 30//11
f 32//14 36//18 35//17 31//13
f 34//15 38//19 37//20 33//16
f 35//17 39//21 38//19 34//15
f 36//18 40//22 39//21 35//17
f 38//19 42//23 41//20 37//20
f 39//21 43//24 42//23 38//19
f 40//22 44//25 43//24 39//21
f 42//23 46//26 45//16 41//20
f 43//24 47//27 46//26 42//23
f 44//25 48//28 47//27 43//24
f 46//26 50//29 49//16 45//16
f 47//27 51//30 50//29 46//26
f 48//28 52//28 51//30 47//27
f 50//29 54//31 53//20 49//16
f 51//30 55//21 54//31 50//29
f 52//28 56//22 55//21 51//30
f 54//31 58//32 57//33 53//20
f 55//21 59//34 58//32 54//31
f 56//22 60//35 59//34 55//21
f 58//32 22//3 21//6 57//33
f 59//34 23//7 22//3 58//32
f 60//35 24//9 23//7 59//34
f 62//36 64//37 63//37 61//36
f 64//37 66//38 65//38 63//37
f 66//38 68//39 67//39 65//38
f 68//39 70//40 69//40 67//39
f 70//40 72//40 71//40 69//40
f 72//40 74//39 73//39 71//40
f 74//39 76//39 75//39 73//39
f 76//39 78//40 77//40 75//39
f 78//40 80//41 79//41 77//40
f 80//41 62//36 61//36 79//41
f 82//42 86//43 85//44 81//45
f 83//46 87//47 86//43 82//42
f 84//48 88//49 87//47 83//46
f 86//43 90//50 89//51 85//44
f 87//47 91//52 90//50 86//43
f 88//49 92//53 91//52 87//47
f 90//50 94//54 93//55 89//51
f 91//52 95//56 94//54 90//50
f 92//53 96//57 95//56 91//52
f 94//54 98//58 97//59 93//55
f 95//56 99//60 98//58 94//54
f 96//57 100//61 99//60 95//56
f 98//58 102//62 101//63 97//59
f 99//60 103//64 102//62 98//58
f 100//61 104//61 103//64 99//60
f 102//62 106//65 105//66 101//63
f 103//64 107//67 106//65 102//62
f 104//61 108//57 107//67 103//64
f 106//65 110//68 109//66 105//66
f 107//67 111//69 110//68 106//65
f 108//57 112//57 111//69 107//67
f 110//68 114//58 113//59 109//66
f 111//69 115//70 114//58 110//68
f 112//57 116//61 115//70 111//69
f 114//58 118//71 117//72 113//59
f 115//70 119//73 118//71 114//58
f 116//61 120//74 119//73 115//70
f 118//71 82//42 81//45 117//72
f 119//73 83//46 82//42 118//71
f 120//74 84//48 83//46 119//73
