# Blender v2.76 (sub 0) OBJ File: ''
# www.blender.org
mtllib w.mtl
o Text_Untitled
v 1.264006 -0.049307 1.358017
v 0.708450 -0.049307 1.358017
v 0.708450 -0.049307 0.802461
v 0.819561 -0.049307 0.802461
v 0.819561 -0.049307 1.246906
v 0.930673 -0.049307 1.246906
v 0.930673 -0.049307 0.802461
v 1.041784 -0.049307 0.802461
v 1.041784 -0.049307 1.246906
v 1.152895 -0.049307 1.246906
v 1.152895 -0.049307 0.802461
v 1.264006 -0.049307 0.802461
v 1.264006 -0.137307 1.358017
v 0.708450 -0.137307 1.358017
v 0.708450 -0.137307 0.802461
v 0.819561 -0.137307 0.802461
v 0.819561 -0.137307 1.246906
v 0.930673 -0.137307 1.246906
v 0.930673 -0.137307 0.802461
v 1.041784 -0.137307 0.802461
v 1.041784 -0.137307 1.246906
v 1.152895 -0.137307 1.246906
v 1.152895 -0.137307 0.802461
v 1.264006 -0.137307 0.802461
v 1.264006 -0.137307 1.358017
v 1.265506 -0.136906 1.359517
v 1.266604 -0.135807 1.360615
v 1.267006 -0.134308 1.361017
v 0.708450 -0.137307 1.358017
v 0.706950 -0.136906 1.359517
v 0.705852 -0.135807 1.360615
v 0.705450 -0.134308 1.361017
v 0.708450 -0.137307 0.802461
v 0.706950 -0.136906 0.800961
v 0.705852 -0.135807 0.799863
v 0.705450 -0.134308 0.799461
v 0.819561 -0.137307 0.802461
v 0.821061 -0.136906 0.800961
v 0.822160 -0.135807 0.799863
v 0.822561 -0.134308 0.799461
v 0.819561 -0.137307 1.246906
v 0.821061 -0.136906 1.245406
v 0.822160 -0.135807 1.244308
v 0.822561 -0.134308 1.243906
v 0.930673 -0.137307 1.246906
v 0.929173 -0.136906 1.245406
v 0.928074 -0.135807 1.244308
v 0.927673 -0.134308 1.243906
v 0.930673 -0.137307 0.802461
v 0.929173 -0.136906 0.800961
v 0.928074 -0.135807 0.799863
v 0.927673 -0.134308 0.799461
v 1.041784 -0.137307 0.802461
v 1.043284 -0.136906 0.800961
v 1.044382 -0.135807 0.799863
v 1.044784 -0.134308 0.799461
v 1.041784 -0.137307 1.246906
v 1.043284 -0.136906 1.245406
v 1.044382 -0.135807 1.244308
v 1.044784 -0.134308 1.243906
v 1.152895 -0.137307 1.246906
v 1.151395 -0.136906 1.245406
v 1.150297 -0.135807 1.244308
v 1.149895 -0.134308 1.243906
v 1.152895 -0.137307 0.802461
v 1.151395 -0.136906 0.800961
v 1.150297 -0.135807 0.799863
v 1.149895 -0.134308 0.799461
v 1.264006 -0.137307 0.802461
v 1.265506 -0.136906 0.800961
v 1.266604 -0.135807 0.799863
v 1.267006 -0.134308 0.799461
v 1.267006 -0.134308 1.361017
v 1.267006 -0.052307 1.361017
v 0.705450 -0.134308 1.361017
v 0.705450 -0.052307 1.361017
v 0.705450 -0.134308 0.799461
v 0.705450 -0.052307 0.799461
v 0.822561 -0.134308 0.799461
v 0.822561 -0.052307 0.799461
v 0.822561 -0.134308 1.243906
v 0.822561 -0.052307 1.243906
v 0.927673 -0.134308 1.243906
v 0.927673 -0.052307 1.243906
v 0.927673 -0.134308 0.799461
v 0.927673 -0.052307 0.799461
v 1.044784 -0.134308 0.799461
v 1.044784 -0.052307 0.799461
v 1.044784 -0.134308 1.243906
v 1.044784 -0.052307 1.243906
v 1.149895 -0.134308 1.243906
v 1.149895 -0.052307 1.243906
v 1.149895 -0.134308 0.799461
v 1.149895 -0.052307 0.799461
v 1.267006 -0.134308 0.799461
v 1.267006 -0.052307 0.799461
v 1.267006 -0.052307 1.361017
v 1.266604 -0.050807 1.360615
v 1.265506 -0.049709 1.359517
v 1.264006 -0.049307 1.358017
v 0.705450 -0.052307 1.361017
v 0.705852 -0.050807 1.360615
v 0.706950 -0.049709 1.359517
v 0.708450 -0.049307 1.358017
v 0.705450 -0.052307 0.799461
v 0.705852 -0.050807 0.799863
v 0.706950 -0.049709 0.800961
v 0.708450 -0.049307 0.802461
v 0.822561 -0.052307 0.799461
v 0.822160 -0.050807 0.799863
v 0.821061 -0.049709 0.800961
v 0.819561 -0.049307 0.802461
v 0.822561 -0.052307 1.243906
v 0.822160 -0.050807 1.244308
v 0.821061 -0.049709 1.245406
v 0.819561 -0.049307 1.246906
v 0.927673 -0.052307 1.243906
v 0.928074 -0.050807 1.244308
v 0.929173 -0.049709 1.245406
v 0.930673 -0.049307 1.246906
v 0.927673 -0.052307 0.799461
v 0.928074 -0.050807 0.799863
v 0.929173 -0.049709 0.800961
v 0.930673 -0.049307 0.802461
v 1.044784 -0.052307 0.799461
v 1.044382 -0.050807 0.799863
v 1.043284 -0.049709 0.800961
v 1.041784 -0.049307 0.802461
v 1.044784 -0.052307 1.243906
v 1.044382 -0.050807 1.244308
v 1.043284 -0.049709 1.245406
v 1.041784 -0.049307 1.246906
v 1.149895 -0.052307 1.243906
v 1.150297 -0.050807 1.244308
v 1.151395 -0.049709 1.245406
v 1.152895 -0.049307 1.246906
v 1.149895 -0.052307 0.799461
v 1.150297 -0.050807 0.799863
v 1.151395 -0.049709 0.800961
v 1.152895 -0.049307 0.802461
v 1.267006 -0.052307 0.799461
v 1.266604 -0.050807 0.799863
v 1.265506 -0.049709 0.800961
v 1.264006 -0.049307 0.802461
vn 0.000000 1.000000 0.000000
vn 0.000000 -1.000000 0.000000
vn 0.333200 -0.882000 0.333200
vn -0.333200 -0.882000 0.333200
vn -0.131600 -0.982500 0.131600
vn 0.131600 -0.982500 0.131600
vn 0.588500 -0.554300 0.588500
vn -0.588500 -0.554200 0.588500
vn 0.661200 -0.354400 0.661200
vn -0.661200 -0.354400 0.661200
vn -0.333200 -0.882000 -0.333200
vn -0.131600 -0.982500 -0.131600
vn -0.588500 -0.554200 -0.588500
vn -0.661200 -0.354400 -0.661200
vn 0.333100 -0.882000 -0.333200
vn 0.131600 -0.982500 -0.131600
vn 0.588500 -0.554200 -0.588500
vn 0.661200 -0.354400 -0.661200
vn 0.208500 -0.955500 -0.208500
vn 0.513500 -0.687500 -0.513400
vn 0.661200 -0.354300 -0.661200
vn -0.208500 -0.955500 -0.208500
vn -0.513500 -0.687500 -0.513400
vn 0.333200 -0.882000 -0.333200
vn 0.588600 -0.554200 -0.588500
vn 0.513500 -0.687500 -0.513500
vn -0.661200 -0.354300 -0.661200
vn 0.588500 -0.554300 -0.588500
vn 0.707100 0.000000 0.707100
vn -0.707100 0.000000 0.707100
vn -0.707100 0.000000 -0.707100
vn 0.707100 0.000000 -0.707100
vn 0.588500 0.554300 0.588500
vn -0.588500 0.554200 0.588500
vn -0.661200 0.354400 0.661200
vn 0.661200 0.354400 0.661200
vn 0.333200 0.882000 0.333200
vn -0.333200 0.882000 0.333200
vn 0.131600 0.982500 0.131600
vn -0.131600 0.982500 0.131600
vn -0.588500 0.554200 -0.588500
vn -0.661200 0.354400 -0.661200
vn -0.333200 0.882000 -0.333200
vn -0.131600 0.982500 -0.131600
vn 0.588500 0.554200 -0.588500
vn 0.661200 0.354400 -0.661200
vn 0.333100 0.882000 -0.333200
vn 0.131600 0.982500 -0.131600
vn 0.513500 0.687500 -0.513400
vn 0.661200 0.354300 -0.661200
vn 0.208500 0.955500 -0.208500
vn -0.513500 0.687500 -0.513400
vn -0.208500 0.955500 -0.208500
vn 0.588600 0.554200 -0.588500
vn 0.333200 0.882000 -0.333200
vn 0.513500 0.687500 -0.513500
vn -0.661200 0.354300 -0.661200
vn 0.588500 0.554300 -0.588500
usemtl None
s off
f 2//1 4//1 3//1
f 2//1 5//1 4//1
f 6//1 8//1 7//1
f 6//1 9//1 8//1
f 10//1 12//1 11//1
f 10//1 1//1 12//1
f 2//1 6//1 5//1
f 2//1 9//1 6//1
f 2//1 10//1 9//1
f 2//1 1//1 10//1
f 16//2 14//2 15//2
f 17//2 14//2 16//2
f 20//2 18//2 19//2
f 21//2 18//2 20//2
f 24//2 22//2 23//2
f 13//2 22//2 24//2
f 18//2 14//2 17//2
f 21//2 14//2 18//2
f 22//2 14//2 21//2
f 13//2 14//2 22//2
s 1
f 26//3 30//4 29//5 25//6
f 27//7 31//8 30//4 26//3
f 28//9 32//10 31//8 27//7
f 30//4 34//11 33//12 29//5
f 31//8 35//13 34//11 30//4
f 32//10 36//14 35//13 31//8
f 34//11 38//15 37//16 33//12
f 35//13 39//17 38//15 34//11
f 36//14 40//18 39//17 35//13
f 38//15 42//19 41//16 37//16
f 39//17 43//20 42//19 38//15
f 40//18 44//21 43//20 39//17
f 42//19 46//22 45//12 41//16
f 43//20 47//23 46//22 42//19
f 44//21 48//14 47//23 43//20
f 46//22 50//11 49//12 45//12
f 47//23 51//13 50//11 46//22
f 48//14 52//14 51//13 47//23
f 50//11 54//24 53//16 49//12
f 51//13 55//25 54//24 50//11
f 52//14 56//21 55//25 51//13
f 54//24 58//19 57//16 53//16
f 55//25 59//26 58//19 54//24
f 56//21 60//21 59//26 55//25
f 58//19 62//22 61//12 57//16
f 59//26 63//23 62//22 58//19
f 60//21 64//27 63//23 59//26
f 62//22 66//11 65//12 61//12
f 63//23 67//13 66//11 62//22
f 64//27 68//14 67//13 63//23
f 66//11 70//24 69//16 65//12
f 67//13 71//28 70//24 66//11
f 68//14 72//18 71//28 67//13
f 70//24 26//3 25//6 69//16
f 71//28 27//7 26//3 70//24
f 72//18 28//9 27//7 71//28
f 74//29 76//30 75//30 73//29
f 76//30 78//31 77//31 75//30
f 78//31 80//32 79//32 77//31
f 80//32 82//32 81//32 79//32
f 82//32 84//31 83//31 81//32
f 84//31 86//31 85//31 83//31
f 86//31 88//32 87//32 85//31
f 88//32 90//32 89//32 87//32
f 90//32 92//31 91//31 89//32
f 92//31 94//31 93//31 91//31
f 94//31 96//32 95//32 93//31
f 96//32 74//29 73//29 95//32
f 98//33 102//34 101//35 97//36
f 99//37 103//38 102//34 98//33
f 100//39 104//40 103//38 99//37
f 102//34 106//41 105//42 101//35
f 103//38 107//43 106//41 102//34
f 104//40 108//44 107//43 103//38
f 106//41 110//45 109//46 105//42
f 107//43 111//47 110//45 106//41
f 108//44 112//48 111//47 107//43
f 110//45 114//49 113//50 109//46
f 111//47 115//51 114//49 110//45
f 112//48 116//48 115//51 111//47
f 114//49 118//52 117//42 113//50
f 115//51 119//53 118//52 114//49
f 116//48 120//44 119//53 115//51
f 118//52 122//41 121//42 117//42
f 119//53 123//43 122//41 118//52
f 120//44 124//44 123//43 119//53
f 122//41 126//54 125//50 121//42
f 123//43 127//55 126//54 122//41
f 124//44 128//48 127//55 123//43
f 126//54 130//56 129//50 125//50
f 127//55 131//51 130//56 126//54
f 128//48 132//48 131//51 127//55
f 130//56 134//52 133//57 129//50
f 131//51 135//53 134//52 130//56
f 132//48 136//44 135//53 131//51
f 134//52 138//41 137//42 133//57
f 135//53 139//43 138//41 134//52
f 136//44 140//44 139//43 135//53
f 138//41 142//58 141//46 137//42
f 139//43 143//55 142//58 138//41
f 140//44 144//48 143//55 139//43
f 142//58 98//33 97//36 141//46
f 143//55 99//37 98//33 142//58
f 144//48 100//39 99//37 143//55
